<svg width="46" height="45" viewBox="0 0 46 45" fill="none" xmlns="http://www.w3.org/2000/svg">
<path fill-rule="evenodd" clip-rule="evenodd" d="M16.0565 19.6918C16.3674 22.1558 17.4879 24.4625 19.2627 26.2373C21.0373 28.0119 23.3438 29.1324 25.8075 29.4435C25.8008 29.107 25.8578 28.7721 25.9756 28.4564C26.1038 28.1128 26.3014 27.7994 26.556 27.5356C26.9909 27.1948 27.491 26.9467 28.0254 26.8064C28.5598 26.6661 29.1173 26.6367 29.6635 26.72H36.0052C36.5536 26.6397 37.1126 26.6706 37.6488 26.8107C38.1851 26.9508 38.6877 27.1973 39.1268 27.5356C39.3814 27.7994 39.5789 28.1128 39.7071 28.4564C39.8353 28.7999 39.8915 29.1661 39.872 29.5322V35.1567C39.872 36.2755 39.4276 37.3485 38.6365 38.1396C37.8454 38.9307 36.7724 39.3751 35.6536 39.3751H30.0291V39.3749C23.6894 39.3749 17.6093 36.8564 13.1264 32.3735C8.6435 27.8906 6.12503 21.8105 6.125 15.4708C6.125 15.4708 6.125 15.4707 6.125 15.4707V11.2523V9.84629C6.125 8.72751 6.56943 7.65452 7.36053 6.86342C8.15163 6.07232 9.2246 5.62791 10.3434 5.62791H15.9679C16.3338 5.61096 16.6993 5.66822 17.0425 5.79629C17.3856 5.92437 17.6993 6.12066 17.9646 6.3732C18.3025 6.80975 18.5488 7.30993 18.6889 7.84387C18.8291 8.3778 18.8601 8.93449 18.7802 9.48069V15.8364C18.8601 16.3826 18.8291 16.9393 18.6889 17.4732C18.5488 18.0072 18.3025 18.5074 17.9646 18.9439C17.6993 19.1964 17.3856 19.3927 17.0425 19.5208C16.727 19.6386 16.3926 19.6964 16.0565 19.6918ZM8.93726 15.4708C8.93729 21.0647 11.1594 26.4295 15.1149 30.385C19.0704 34.3405 24.4353 36.5626 30.0292 36.5626H34.2476V36.5629H35.6536C36.0266 36.5629 36.3842 36.4147 36.6479 36.151C36.9116 35.8873 37.0598 35.5297 37.0598 35.1567V29.5322H36.0333H29.6354H28.6231V32.3443H27.217C23.4877 32.3443 19.9111 30.8628 17.2741 28.2258C14.6371 25.5888 13.1557 22.0123 13.1557 18.283V16.8769H15.9679V15.8505V9.46661V8.44017H10.3434C9.97046 8.44017 9.6128 8.58833 9.3491 8.85203C9.0854 9.11573 8.93726 9.47337 8.93726 9.84629V15.4708Z" fill="#FF3333"/>
</svg>
