<svg width="46" height="44" viewBox="0 0 46 44" fill="none" xmlns="http://www.w3.org/2000/svg">
<path d="M29.7362 31.874C20.895 31.874 13.702 24.6765 13.6996 15.8326C13.702 13.5908 15.5269 11.7678 17.7632 11.7678C17.9931 11.7678 18.2206 11.7872 18.4384 11.8259C18.9176 11.9058 19.3727 12.068 19.7914 12.3125C19.8519 12.3488 19.893 12.407 19.9027 12.4747L20.8369 18.365C20.849 18.4328 20.8272 18.503 20.7813 18.5538C20.2657 19.1252 19.6074 19.5367 18.8741 19.7425L18.5207 19.8418L18.6538 20.1831C19.8591 23.2529 22.3133 25.7054 25.3846 26.9159L25.7259 27.0514L25.8251 26.698C26.0308 25.9644 26.4423 25.3059 27.0134 24.7903C27.0546 24.7515 27.1102 24.7321 27.1659 24.7321C27.178 24.7321 27.1901 24.7321 27.2046 24.7346L33.0931 25.6691C33.1633 25.6812 33.2214 25.7199 33.2577 25.7804C33.4998 26.1993 33.6619 26.6568 33.7442 27.1362C33.7829 27.3492 33.7999 27.5744 33.7999 27.8092C33.7999 30.0486 31.9774 31.8716 29.7362 31.874Z" fill="#FF3333"/>
<path d="M45.4153 19.8278C44.9385 14.4387 42.4698 9.43939 38.4643 5.75225C34.4346 2.04331 29.2068 0 23.7394 0C11.7397 0 1.97639 9.76622 1.97639 21.7694C1.97639 25.7979 3.08726 29.7223 5.19047 33.1408L0.5 43.5268L15.5178 41.9265C18.1292 42.9966 20.8932 43.5389 23.737 43.5389C24.4848 43.5389 25.2521 43.5001 26.0217 43.4202C26.6994 43.3476 27.3843 43.2411 28.0572 43.1055C38.1061 41.0743 45.4419 32.153 45.5 21.8856V21.7694C45.5 21.1158 45.471 20.4621 45.4129 19.8302L45.4153 19.8278ZM16.0962 37.3678L7.78744 38.2539L10.2682 32.7558L9.77205 32.0901C9.73575 32.0416 9.69945 31.9932 9.6583 31.9375C7.50427 28.9622 6.36672 25.4469 6.36672 21.7719C6.36672 12.1896 14.16 4.39408 23.7394 4.39408C32.7137 4.39408 40.3206 11.398 41.054 20.3386C41.0927 20.818 41.1145 21.2998 41.1145 21.7743C41.1145 21.9098 41.1121 22.043 41.1096 22.1858C40.9257 30.2017 35.3276 37.0095 27.4956 38.7429C26.8978 38.8761 26.2855 38.9777 25.6756 39.0431C25.0415 39.1157 24.3904 39.152 23.7442 39.152C21.4426 39.152 19.2062 38.7066 17.0934 37.8254C16.8586 37.7309 16.6286 37.6293 16.4132 37.5252L16.0986 37.3726L16.0962 37.3678Z" fill="#FF3333"/>
</svg>
