<svg width="48" height="48" viewBox="0 0 48 48" fill="none" xmlns="http://www.w3.org/2000/svg">
<path fill-rule="evenodd" clip-rule="evenodd" d="M41.6667 14.1818H40.0468V33.8182H30.2286V42H26.9559V33.8182H17.1377V25.6364H20.4104V30.5455H36.774V14.1818H20.4104V20.7273H23.6667V24H15.5013V28.9091V32.1818V42H12.2286V32.1818H10.5922V42H7.31949V32.1818H5.66675V24C5.66675 23.132 6.01155 22.2996 6.62531 21.6858C7.23906 21.0721 8.07149 20.7273 8.93948 20.7273H17.1377V14.1818H15.4849V6H41.6667V14.1818ZM38.394 9.27273V10.9091H18.7577V9.27273H38.394ZM10.5922 19.0909C12.3997 19.0909 13.8649 17.6257 13.8649 15.8182C13.8649 14.0107 12.3997 12.5455 10.5922 12.5455C8.78474 12.5455 7.31949 14.0107 7.31949 15.8182C7.31949 17.6257 8.78474 19.0909 10.5922 19.0909Z" fill="#FF3333"/>
</svg>
