<svg width="36" height="36" viewBox="0 0 36 36" fill="none" xmlns="http://www.w3.org/2000/svg">
<path d="M18 33C9.71572 33 3 26.2842 3 18C3 9.71572 9.71572 3 18 3C26.2842 3 33 9.71572 33 18C33 26.2842 26.2842 33 18 33ZM12 19.5C12 22.8137 14.6863 25.5 18 25.5C21.3137 25.5 24 22.8137 24 19.5H12ZM12 16.5C13.2426 16.5 14.25 15.4926 14.25 14.25C14.25 13.0074 13.2426 12 12 12C10.7574 12 9.75 13.0074 9.75 14.25C9.75 15.4926 10.7574 16.5 12 16.5ZM24 16.5C25.2426 16.5 26.25 15.4926 26.25 14.25C26.25 13.0074 25.2426 12 24 12C22.7574 12 21.75 13.0074 21.75 14.25C21.75 15.4926 22.7574 16.5 24 16.5Z" fill="white"/>
</svg>
