<svg width="49" height="48" viewBox="0 0 49 48" fill="none" xmlns="http://www.w3.org/2000/svg">
<path fill-rule="evenodd" clip-rule="evenodd" d="M19.2855 31.8435C21.9535 34.1724 25.3764 35.4531 28.9178 35.4474H29.9826C32.3979 35.271 34.7326 34.5023 36.7802 33.2092C38.8279 31.9162 40.5255 30.1386 41.723 28.0337C42.9205 25.9287 43.5811 23.5612 43.6463 21.1404C43.7115 18.7195 43.1794 16.3198 42.0969 14.1535C41.0145 11.9871 39.415 10.1208 37.44 8.71935C35.4649 7.31794 33.175 6.4246 30.7727 6.11835C28.3704 5.81211 25.9296 6.10239 23.6661 6.96347C21.732 7.69927 19.9782 8.8325 18.5159 10.2857L15.8291 7.59895V15.8225L24.0198 15.7897L20.8269 12.5967C21.6925 11.7252 22.695 10.9985 23.7965 10.4467C25.1437 9.77168 26.6117 9.37163 28.1151 9.26986C29.6187 9.16056 31.1291 9.34883 32.5599 9.82388C33.9906 10.2989 35.3136 11.0514 36.4533 12.0383C38.7516 14.0303 40.1645 16.8538 40.381 19.8875C40.5976 22.9212 39.6002 25.9167 37.6082 28.215C35.6162 30.5133 32.7927 31.9262 29.759 32.1428C26.7253 32.3593 23.7298 31.3619 21.4315 29.3699L19.2855 31.8435ZM10.9147 19.066C12.7241 19.066 14.191 17.5991 14.191 15.7897C14.191 13.9802 12.7241 12.5134 10.9147 12.5134C9.10523 12.5134 7.63839 13.9802 7.63839 15.7897C7.63839 17.5991 9.10523 19.066 10.9147 19.066ZM7.63839 32.1711H6.00024V23.9804C6.00024 23.1115 6.34542 22.2781 6.95984 21.6637C7.57427 21.0493 8.40761 20.7041 9.27653 20.7041H24.0198V23.9804H15.8291L15.8291 28.8948L15.8291 32.1711L15.8291 42H12.5528V32.1711H10.9147V42H7.63839V32.1711ZM32.6037 26.8308L27.2961 21.4249V10.8752H30.5724V20.0816L34.9463 24.521L32.6037 26.8308Z" fill="#FF3333"/>
</svg>
