<svg width="31" height="31" viewBox="0 0 31 31" fill="none" xmlns="http://www.w3.org/2000/svg">
<path d="M30.0243 15.3081C30.0243 22.8841 24.4102 29.1473 17.1171 30.1636C16.4351 30.2582 15.7374 30.3076 15.0292 30.3076C14.2118 30.3076 13.409 30.2425 12.6273 30.1163C5.4875 28.9665 0.0341797 22.7737 0.0341797 15.3081C0.0341797 7.0238 6.74839 0.307617 15.0303 0.307617C23.3122 0.307617 30.0264 7.0238 30.0264 15.3081H30.0243Z" fill="white"/>
<path d="M17.1172 12.3525V15.6202H21.1583L20.5184 20.022H17.1172V30.1636C16.4352 30.2581 15.7375 30.3075 15.0293 30.3075C14.2119 30.3075 13.4091 30.2424 12.6274 30.1163V20.022H8.90039V15.6202H12.6274V11.6221C12.6274 9.14159 14.6374 7.12988 17.1182 7.12988V7.13199C17.1256 7.13199 17.1319 7.12988 17.1392 7.12988H21.1593V10.9368H18.5325C17.7518 10.9368 17.1182 11.5706 17.1182 12.3515L17.1172 12.3525Z" fill="#003399"/>
</svg>
