<svg width="36" height="36" viewBox="0 0 36 36" fill="none" xmlns="http://www.w3.org/2000/svg">
<path d="M18 15C21.3137 15 24 12.3137 24 9C24 5.68629 21.3137 3 18 3C14.6863 3 12 5.68629 12 9C12 12.3137 14.6863 15 18 15ZM8.25 19.5C10.3211 19.5 12 17.821 12 15.75C12 13.6789 10.3211 12 8.25 12C6.17894 12 4.5 13.6789 4.5 15.75C4.5 17.821 6.17894 19.5 8.25 19.5ZM31.5 15.75C31.5 17.821 29.8211 19.5 27.75 19.5C25.6789 19.5 24 17.821 24 15.75C24 13.6789 25.6789 12 27.75 12C29.8211 12 31.5 13.6789 31.5 15.75ZM18 16.5C22.1421 16.5 25.5 19.8579 25.5 24V33H10.5V24C10.5 19.8579 13.8579 16.5 18 16.5ZM7.5 23.9998C7.5 22.9605 7.651 21.9564 7.93227 21.0084L7.67796 21.0306C5.04754 21.3156 3 23.5437 3 26.2499V32.9999H7.5V23.9998ZM33 32.9999V26.2499C33 23.4567 30.8188 21.173 28.0677 21.0084C28.3489 21.9564 28.5 22.9605 28.5 23.9998V32.9999H33Z" fill="white"/>
</svg>
