<svg width="36" height="36" viewBox="0 0 36 36" fill="none" xmlns="http://www.w3.org/2000/svg">
<path d="M7.9958 23.8928C7.6725 22.4867 7.50081 21.0149 7.50081 19.4995C7.50081 11.8675 11.8548 5.34498 18.0008 2.72656C24.1469 5.34498 28.5008 11.8675 28.5008 19.4995C28.5008 21.0149 28.3292 22.4867 28.0059 23.8928L31.0361 26.5864C31.3056 26.8259 31.3664 27.2236 31.1808 27.5327L27.495 33.6758C27.2819 34.031 26.8212 34.1462 26.466 33.9331C26.4135 33.9016 26.3649 33.8636 26.3216 33.8203L22.9401 30.4388C22.6589 30.1576 22.2773 29.9995 21.8795 29.9995H14.1221C13.7243 29.9995 13.3428 30.1576 13.0615 30.4388L9.68006 33.8203C9.38715 34.1132 8.91228 34.1132 8.61939 33.8203C8.57603 33.7769 8.53815 33.7283 8.50661 33.6758L4.82078 27.5327C4.63521 27.2236 4.69607 26.8259 4.96563 26.5864L7.9958 23.8928ZM18.0008 19.4995C19.6577 19.4995 21.0008 18.1564 21.0008 16.4995C21.0008 14.8426 19.6577 13.4995 18.0008 13.4995C16.344 13.4995 15.0008 14.8426 15.0008 16.4995C15.0008 18.1564 16.344 19.4995 18.0008 19.4995Z" fill="white"/>
</svg>
