<svg width="36" height="36" viewBox="0 0 36 36" fill="none" xmlns="http://www.w3.org/2000/svg">
<path d="M27.8634 20.5671C28.6118 20.5671 29.2104 19.931 29.2104 19.2201C29.2104 18.4718 28.6118 17.8732 27.8634 17.8732C27.1152 17.8732 26.5166 18.4718 26.5166 19.2201C26.5166 19.9685 27.1152 20.5671 27.8634 20.5671ZM21.225 20.5671C21.9732 20.5671 22.5719 19.931 22.5719 19.2201C22.5719 18.4718 21.9732 17.8732 21.225 17.8732C20.4767 17.8732 19.878 18.4718 19.878 19.2201C19.878 19.9685 20.4767 20.5671 21.225 20.5671ZM31.076 28.1274C30.8918 28.238 30.7812 28.4223 30.8181 28.6803C30.8181 28.7539 30.8181 28.8277 30.8549 28.9014C31.0023 29.5281 31.2969 30.5235 31.2969 30.5604C31.2969 30.6709 31.3338 30.7446 31.3338 30.8184C31.3338 31.0028 31.1865 31.1502 31.0023 31.1502C30.9285 31.1502 30.8918 31.1133 30.8181 31.0764L28.6446 29.823C28.4972 29.7493 28.313 29.6756 28.1288 29.6756C28.0184 29.6756 27.9078 29.6756 27.8342 29.7125C26.8026 30.0074 25.7343 30.1548 24.5924 30.1548C19.1033 30.1548 14.6827 26.4684 14.6827 21.8974C14.6827 17.3264 19.1033 13.6399 24.5924 13.6399C30.0813 13.6399 34.502 17.3264 34.502 21.8974C34.502 24.3672 33.1757 26.6159 31.076 28.1274ZM25.011 12.1464C24.872 12.1421 24.7325 12.1399 24.5924 12.1399C18.3303 12.1399 13.1827 16.4304 13.1827 21.8974C13.1827 22.7278 13.3015 23.5311 13.5249 24.2962H13.3911C12.0619 24.2962 10.7327 24.0755 9.51423 23.7444C9.40347 23.7075 9.2927 23.7075 9.18194 23.7075C8.96039 23.7075 8.73885 23.7812 8.55423 23.8916L5.93271 25.4001C5.85887 25.437 5.78501 25.4738 5.71116 25.4738C5.48963 25.4738 5.30502 25.2899 5.30502 25.069C5.30502 24.9587 5.34194 24.885 5.37887 24.7746C5.41578 24.7378 5.74809 23.5236 5.93271 22.7877C5.93271 22.7141 5.96963 22.6036 5.96963 22.5301C5.96963 22.2357 5.82194 22.0149 5.63732 21.8678C3.08964 20.0647 1.50195 17.3787 1.50195 14.3981C1.50195 8.91553 6.85578 4.5 13.4281 4.5C19.074 4.5 23.8208 7.75284 25.011 12.1464ZM17.2803 12.7741C18.1395 12.7741 18.8198 12.0581 18.8198 11.2347C18.8198 10.3755 18.1395 9.69534 17.2803 9.69534C16.4211 9.69534 15.741 10.3755 15.741 11.2347C15.741 12.0939 16.4211 12.7741 17.2803 12.7741ZM9.39116 12.7741C10.2503 12.7741 10.9305 12.0581 10.9305 11.2347C10.9305 10.3755 10.2503 9.69534 9.39116 9.69534C8.53199 9.69534 7.8518 10.3755 7.8518 11.2347C7.8518 12.0939 8.53199 12.7741 9.39116 12.7741Z" fill="white"/>
</svg>
