<svg width="18" height="18" viewBox="0 0 18 18" fill="none" xmlns="http://www.w3.org/2000/svg">
<path d="M9.00075 1.5C13.1428 1.5 16.5007 4.85786 16.5007 9C16.5007 13.1421 13.1428 16.5 9.00075 16.5C7.62532 16.5 6.33638 16.1298 5.22814 15.4835L1.50387 16.5L2.51784 12.7736C1.8712 11.6652 1.50073 10.3759 1.50073 9C1.50073 4.85786 4.8586 1.5 9.00075 1.5ZM6.29424 5.48125C6.19719 5.48807 6.10205 5.51177 6.01542 5.55608C5.95044 5.58933 5.89011 5.63738 5.79531 5.72689C5.7058 5.81141 5.65392 5.88523 5.59927 5.9564C5.32199 6.3174 5.17297 6.76054 5.17573 7.21574C5.17724 7.5837 5.27282 7.9413 5.42376 8.2752C5.72986 8.9523 6.23466 9.6681 6.90145 10.3319C7.06162 10.4914 7.21854 10.6526 7.38775 10.8015C8.21535 11.5302 9.2016 12.0556 10.268 12.3362C10.268 12.3362 10.688 12.4007 10.6942 12.401C10.8333 12.4085 10.9722 12.3985 11.1115 12.3913C11.3299 12.3801 11.5432 12.321 11.7363 12.2182C11.8604 12.1521 11.9191 12.1192 12.0233 12.0535C12.0233 12.0535 12.0553 12.0319 12.1169 11.986C12.2182 11.9106 12.2807 11.8575 12.3649 11.7701C12.427 11.7056 12.4804 11.6293 12.5217 11.5435C12.5803 11.4211 12.6394 11.1874 12.6628 10.9934C12.6808 10.8452 12.6754 10.7642 12.6734 10.7141C12.6702 10.6334 12.6035 10.5503 12.5305 10.5151L12.0943 10.319C12.0943 10.319 11.4422 10.0352 11.0434 9.85328C11.0018 9.8343 10.9564 9.82553 10.9107 9.82275C10.8106 9.8166 10.6985 9.8427 10.6272 9.91785C10.6234 9.91635 10.5738 9.95925 10.0312 10.6166C10.0012 10.6524 9.93112 10.7302 9.80985 10.7229C9.79155 10.7216 9.77332 10.719 9.75555 10.7143C9.70642 10.7014 9.65857 10.6843 9.61177 10.6645C9.519 10.6251 9.48645 10.6102 9.42307 10.5829C8.9901 10.3937 8.59275 10.1407 8.24152 9.831C8.14732 9.74805 8.05972 9.65872 7.96942 9.5712C7.65427 9.26572 7.39627 8.94082 7.20433 8.62035C7.19385 8.60288 7.1777 8.5776 7.16031 8.54932C7.1289 8.49825 7.09427 8.4375 7.08341 8.3958C7.05553 8.28547 7.12949 8.19683 7.12949 8.19683C7.12949 8.19683 7.31204 7.99725 7.39686 7.88873C7.47846 7.78425 7.5489 7.6821 7.59375 7.60928C7.6821 7.46725 7.71007 7.32046 7.66365 7.20722C7.45323 6.69424 7.23613 6.18402 7.01239 5.67671C6.96823 5.57659 6.83688 5.50384 6.71744 5.49005C6.67698 5.48538 6.63656 5.48068 6.59594 5.47801C6.4954 5.47311 6.39465 5.47419 6.29424 5.48125Z" fill="#555658"/>
</svg>
