<svg width="49" height="48" viewBox="0 0 49 48" fill="none" xmlns="http://www.w3.org/2000/svg">
<path fill-rule="evenodd" clip-rule="evenodd" d="M6.8335 27H30.8335V24H9.8335V9H32.3335V6H6.8335V27ZM41.3339 12C41.3339 13.6569 39.9907 15 38.3339 15C36.677 15 35.3339 13.6569 35.3339 12C35.3339 10.3431 36.677 9 38.3339 9C39.9907 9 41.3339 10.3431 41.3339 12ZM42.8486 27H41.3339V36H38.3339V27H36.8339V36H33.8339V27V24V18.5575L28.3286 13.065L30.4436 10.9351L36.0086 16.5H39.8936C40.6893 16.5 41.4523 16.8161 42.0149 17.3787C42.5776 17.9413 42.8936 18.7044 42.8936 19.5L42.8486 27ZM15.8489 42V39C15.8489 38.2043 15.5328 37.4413 14.9702 36.8787C14.4076 36.3161 13.6445 36 12.8489 36H9.84888C9.05323 36 8.29016 36.3161 7.72755 36.8787C7.16495 37.4413 6.84888 38.2043 6.84888 39V42H15.8489ZM14.3335 31.5C14.3335 33.1569 12.9904 34.5 11.3335 34.5C9.67664 34.5 8.3335 33.1569 8.3335 31.5C8.3335 29.8431 9.67664 28.5 11.3335 28.5C12.9904 28.5 14.3335 29.8431 14.3335 31.5ZM26.3489 42V39C26.3489 38.2043 26.0328 37.4413 25.4702 36.8787C24.9076 36.3161 24.1445 36 23.3489 36H20.3489C19.5532 36 18.7902 36.3161 18.2276 36.8787C17.6649 37.4413 17.3489 38.2043 17.3489 39V42H26.3489ZM24.8335 31.5C24.8335 33.1569 23.4904 34.5 21.8335 34.5C20.1766 34.5 18.8335 33.1569 18.8335 31.5C18.8335 29.8431 20.1766 28.5 21.8335 28.5C23.4904 28.5 24.8335 29.8431 24.8335 31.5ZM42.8335 37.5H27.8335V40.5H42.8335V37.5Z" fill="#FF3333"/>
</svg>
