<svg width="30" height="31" viewBox="0 0 30 31" fill="none" xmlns="http://www.w3.org/2000/svg">
<path d="M15.0385 0.307617H14.9702C6.70726 0.307617 0.00878906 7.00805 0.00878906 15.2735V15.3418C0.00878906 23.6072 6.70726 30.3076 14.9702 30.3076H15.0385C23.3015 30.3076 30 23.6072 30 15.3418V15.2735C30 7.00805 23.3015 0.307617 15.0385 0.307617Z" fill="white"/>
<path d="M7.16089 10.2793C6.76581 9.91251 6.56934 9.45846 6.56934 8.91823C6.56934 8.37799 6.76686 7.90396 7.16089 7.5361C7.55596 7.16928 8.06452 6.98535 8.68761 6.98535C9.3107 6.98535 9.7993 7.16928 10.1933 7.5361C10.5884 7.90291 10.7849 8.36432 10.7849 8.91823C10.7849 9.47213 10.5873 9.91251 10.1933 10.2793C9.79825 10.6461 9.29704 10.8301 8.68761 10.8301C8.07818 10.8301 7.55596 10.6461 7.16089 10.2793ZM10.4529 12.3835V23.6297H6.90031V12.3835H10.4529Z" fill="#003399"/>
<path d="M22.2791 13.4947C23.0535 14.3355 23.4401 15.4895 23.4401 16.9589V23.4312H20.0662V17.4151C20.0662 16.6741 19.874 16.0981 19.4904 15.6882C19.1069 15.2783 18.59 15.0723 17.9427 15.0723C17.2955 15.0723 16.7785 15.2772 16.395 15.6882C16.0114 16.0981 15.8192 16.6741 15.8192 17.4151V23.4312H12.4253V12.3522H15.8192V13.8215C16.1627 13.3317 16.6261 12.945 17.2082 12.6601C17.7904 12.3753 18.445 12.2334 19.1731 12.2334C20.4697 12.2334 21.5057 12.6538 22.2791 13.4936V13.4947Z" fill="#003399"/>
</svg>
