<svg width="36" height="36" viewBox="0 0 36 36" fill="none" xmlns="http://www.w3.org/2000/svg">
<path d="M5.67461 4.23897L18 1.5L30.3253 4.23897C31.0117 4.39149 31.5 5.00021 31.5 5.70326V20.6833C31.5 23.6925 29.9961 26.5026 27.4923 28.1718L18 34.5L8.5077 28.1718C6.00392 26.5026 4.5 23.6925 4.5 20.6833V5.70326C4.5 5.00021 4.9883 4.39149 5.67461 4.23897ZM18 20.25L22.4083 22.5676L21.5664 17.6588L25.1329 14.1824L20.2042 13.4662L18 9L15.7958 13.4662L10.8671 14.1824L14.4335 17.6588L13.5916 22.5676L18 20.25Z" fill="white"/>
</svg>
