<svg width="48" height="48" viewBox="0 0 48 48" fill="none" xmlns="http://www.w3.org/2000/svg">
<path fill-rule="evenodd" clip-rule="evenodd" d="M16.5935 21.0046C16.9253 23.6328 18.1204 26.0934 20.0135 27.9865C21.9065 29.8794 24.3667 31.0745 26.9947 31.4064C26.9876 31.0475 27.0483 30.6902 27.174 30.3534C27.3108 29.987 27.5215 29.6527 27.7931 29.3713C28.257 29.0078 28.7904 28.7431 29.3604 28.5935C29.9305 28.4439 30.5251 28.4125 31.1078 28.5013H37.8722C38.4572 28.4157 39.0534 28.4486 39.6254 28.5981C40.1974 28.7475 40.7336 29.0105 41.2019 29.3713C41.4735 29.6527 41.6842 29.987 41.8209 30.3534C41.9577 30.7199 42.0176 31.1105 41.9968 31.5011V37.5005C41.9968 38.6939 41.5228 39.8384 40.6789 40.6823C39.8351 41.5261 38.6906 42.0001 37.4972 42.0001H31.4977V41.9999C24.7353 41.9999 18.2499 39.3135 13.4681 34.5317C8.6864 29.75 6.00003 23.2646 6 16.5022C6 16.5022 6 16.5021 6 16.5021V12.0025V10.5027C6 9.30934 6.47406 8.16482 7.3179 7.32098C8.16174 6.47714 9.30624 6.0031 10.4996 6.0031H16.4991C16.8894 5.98502 17.2793 6.0461 17.6453 6.18271C18.0113 6.31933 18.3459 6.52871 18.6289 6.79808C18.9893 7.26374 19.2521 7.79726 19.4015 8.36679C19.551 8.93633 19.5841 9.53012 19.4988 10.1127V16.8922C19.5841 17.4748 19.551 18.0686 19.4015 18.6381C19.2521 19.2077 18.9893 19.7412 18.6289 20.2068C18.3459 20.4762 18.0113 20.6856 17.6453 20.8222C17.3088 20.9478 16.9521 21.0095 16.5935 21.0046ZM8.99974 16.5022C8.99977 22.469 11.3701 28.1915 15.5892 32.4106C19.8085 36.6298 25.5309 39.0001 31.4978 39.0001H35.9974V39.0004H37.4972C37.895 39.0004 38.2765 38.8424 38.5578 38.5611C38.8391 38.2798 38.9971 37.8983 38.9971 37.5005V31.5011H37.9022H31.0778H29.998V34.5006H28.4981C24.5202 34.5006 20.7052 32.9204 17.8924 30.1076C15.0796 27.2948 13.4994 23.4798 13.4994 19.5019V18.002H16.4991V16.9072V10.0977V9.00284H10.4996C10.1018 9.00284 9.72032 9.16089 9.43904 9.44217C9.15776 9.72345 8.99974 10.1049 8.99974 10.5027V16.5022Z" fill="#FF3333"/>
</svg>
