<svg width="49" height="48" viewBox="0 0 49 48" fill="none" xmlns="http://www.w3.org/2000/svg">
<path fill-rule="evenodd" clip-rule="evenodd" d="M15.3486 22.3636C13.7304 22.3636 12.1485 21.8838 10.803 20.9848C9.45753 20.0857 8.40884 18.8079 7.78958 17.3129C7.17031 15.8179 7.00826 14.1727 7.32396 12.5856C7.63965 10.9985 8.41892 9.54063 9.56317 8.39638C10.7074 7.25214 12.1652 6.47292 13.7524 6.15722C15.3395 5.84152 16.9845 6.00353 18.4796 6.62279C19.9746 7.24205 21.2525 8.29075 22.1515 9.63624C23.0505 10.9817 23.5304 12.5636 23.5304 14.1818C23.5304 16.3518 22.6684 18.4328 21.134 19.9672C19.5996 21.5016 17.5185 22.3636 15.3486 22.3636ZM15.3486 9.27274C14.3776 9.27274 13.4286 9.56065 12.6213 10.1001C11.814 10.6395 11.1847 11.4062 10.8131 12.3032C10.4416 13.2002 10.3443 14.1873 10.5338 15.1395C10.7232 16.0918 11.1907 16.9665 11.8773 17.6531C12.5638 18.3396 13.4386 18.8072 14.3909 18.9966C15.3431 19.186 16.3302 19.0888 17.2272 18.7172C18.1242 18.3457 18.8909 17.7164 19.4303 16.9091C19.9697 16.1018 20.2577 15.1528 20.2577 14.1818C20.2577 12.8799 19.7405 11.6312 18.8198 10.7106C17.8992 9.78992 16.6505 9.27274 15.3486 9.27274ZM40.3681 6.43288L7.64575 39.1552L9.95992 41.4694L42.6823 8.74704L40.3681 6.43288ZM28.803 40.6211C30.1485 41.5201 31.7304 42 33.3486 42C35.5185 42 37.5996 41.138 39.134 39.6036C40.6683 38.0692 41.5304 35.9881 41.5304 33.8182C41.5304 32.2 41.0505 30.6181 40.1515 29.2726C39.2525 27.9271 37.9746 26.8784 36.4796 26.2591C34.9845 25.6399 33.3395 25.4779 31.7523 25.7936C30.1652 26.1093 28.7074 26.8885 27.5632 28.0327C26.4189 29.177 25.6396 30.6349 25.3239 32.222C25.0083 33.8091 25.1703 35.4542 25.7896 36.9492C26.4088 38.4443 27.4575 39.7221 28.803 40.6211ZM30.6213 29.7364C31.4286 29.197 32.3776 28.9091 33.3486 28.9091C34.6505 28.9091 35.8992 29.4263 36.8198 30.3469C37.7405 31.2675 38.2577 32.5162 38.2577 33.8182C38.2577 34.7891 37.9697 35.7382 37.4303 36.5455C36.8909 37.3528 36.1242 37.982 35.2272 38.3536C34.3302 38.7252 33.3431 38.8224 32.3909 38.6329C31.4386 38.4435 30.5638 37.976 29.8773 37.2894C29.1907 36.6029 28.7232 35.7282 28.5338 34.7759C28.3443 33.8236 28.4415 32.8365 28.8131 31.9395C29.1847 31.0425 29.814 30.2758 30.6213 29.7364Z" fill="#FF3333"/>
</svg>
