<svg width="31" height="31" viewBox="0 0 31 31" fill="none" xmlns="http://www.w3.org/2000/svg">
<path d="M15.0561 0.307617H14.9878C6.72483 0.307617 0.0263672 7.00805 0.0263672 15.2735V15.3418C0.0263672 23.6072 6.72483 30.3076 14.9878 30.3076H15.0561C23.3191 30.3076 30.0175 23.6072 30.0175 15.3418V15.2735C30.0175 7.00805 23.3191 0.307617 15.0561 0.307617Z" fill="white"/>
<path d="M19.6625 6.41113H10.3824C7.81862 6.41113 5.73291 8.49746 5.73291 11.062V19.5545C5.73291 22.119 7.81862 24.2053 10.3824 24.2053H19.6625C22.2263 24.2053 24.312 22.119 24.312 19.5545V11.062C24.312 8.49746 22.2263 6.41113 19.6625 6.41113ZM7.37311 11.062C7.37311 9.40241 8.72331 8.05181 10.3824 8.05181H19.6625C21.3216 8.05181 22.6718 9.40241 22.6718 11.062V19.5545C22.6718 21.2141 21.3216 22.5647 19.6625 22.5647H10.3824C8.72331 22.5647 7.37311 21.2141 7.37311 19.5545V11.062Z" fill="#003399"/>
<path d="M15.0226 19.6337C17.4067 19.6337 19.3474 17.6934 19.3474 15.3075C19.3474 12.9217 17.4078 10.9814 15.0226 10.9814C12.6374 10.9814 10.6978 12.9217 10.6978 15.3075C10.6978 17.6934 12.6374 19.6337 15.0226 19.6337ZM15.0226 12.6232C16.5031 12.6232 17.7072 13.8277 17.7072 15.3086C17.7072 16.7895 16.5031 17.994 15.0226 17.994C13.5421 17.994 12.338 16.7895 12.338 15.3086C12.338 13.8277 13.5421 12.6232 15.0226 12.6232Z" fill="#003399"/>
<path d="M19.7475 11.6799C20.3895 11.6799 20.9128 11.1575 20.9128 10.5142C20.9128 9.87101 20.3906 9.34863 19.7475 9.34863C19.1045 9.34863 18.5823 9.87101 18.5823 10.5142C18.5823 11.1575 19.1045 11.6799 19.7475 11.6799Z" fill="#003399"/>
</svg>
