<svg width="48" height="48" viewBox="0 0 48 48" fill="none" xmlns="http://www.w3.org/2000/svg">
<path fill-rule="evenodd" clip-rule="evenodd" d="M12.2451 6H15.5343V9.28918H30.3356V12.5784H15.5343V15.8675H12.2451V6ZM41.8477 42H5.66675V9.28918H10.6005V12.5784H8.95592V38.7108H38.5585V12.5784H36.9139H35.2693V15.8675H31.9802V6H35.2693V9.28918H36.9139H38.5585H41.8477V42ZM15.5343 23.9095H12.2451V27.1987H15.5343V23.9095ZM31.9802 23.9095H35.2693V27.1987H31.9802V23.9095ZM28.691 23.9095H25.4018V27.1987H28.691V23.9095ZM12.2451 30.4878H15.5343V33.777H12.2451V30.4878ZM28.691 30.4878H25.4018V33.777H28.691V30.4878ZM18.8235 30.4878H22.1126V33.777H18.8235V30.4878ZM35.2693 30.4878H31.9802V33.777H35.2693V30.4878ZM16.8336 22.6102L20.4681 26.2448L26.5695 20.1434L24.2342 17.8245L20.4681 21.5906L19.1688 20.2914L16.8336 22.6102Z" fill="#FF3333"/>
</svg>
