<svg width="30" height="31" viewBox="0 0 30 31" fill="none" xmlns="http://www.w3.org/2000/svg">
<path d="M15.0473 0.307617H14.979C6.71604 0.307617 0.0175781 7.00805 0.0175781 15.2735V15.3418C0.0175781 23.6072 6.71604 30.3076 14.979 30.3076H15.0473C23.3103 30.3076 30.0087 23.6072 30.0087 15.3418V15.2735C30.0087 7.00805 23.3103 0.307617 15.0473 0.307617Z" fill="white"/>
<path d="M17.9358 19.6957C14.0975 19.6957 10.9747 16.571 10.9736 12.7315C10.9747 11.7582 11.7669 10.9668 12.7378 10.9668C12.8376 10.9668 12.9364 10.9752 13.031 10.992C13.239 11.0267 13.4366 11.0971 13.6183 11.2033C13.6446 11.219 13.6625 11.2443 13.6667 11.2737L14.0723 13.8309C14.0775 13.8603 14.0681 13.8908 14.0481 13.9129C13.8243 14.1609 13.5385 14.3396 13.2201 14.4289L13.0667 14.472L13.1245 14.6202C13.6478 15.953 14.7132 17.0177 16.0466 17.5432L16.1947 17.602L16.2378 17.4486C16.3271 17.1301 16.5058 16.8442 16.7537 16.6204C16.7716 16.6036 16.7958 16.5951 16.8199 16.5951C16.8252 16.5951 16.8304 16.5951 16.8367 16.5962L19.3932 17.0019C19.4237 17.0072 19.4489 17.024 19.4646 17.0503C19.5697 17.2321 19.6401 17.4307 19.6758 17.6388C19.6926 17.7313 19.7 17.8291 19.7 17.931C19.7 18.9032 18.9088 19.6947 17.9358 19.6957Z" fill="#003399"/>
<path d="M24.7427 14.4655C24.5357 12.1259 23.464 9.95545 21.725 8.35471C19.9755 6.74451 17.7059 5.85742 15.3323 5.85742C10.1228 5.85742 5.88412 10.0973 5.88412 15.3084C5.88412 17.0574 6.3664 18.7611 7.27949 20.2452L5.24316 24.7542L11.763 24.0594C12.8967 24.524 14.0967 24.7594 15.3313 24.7594C15.656 24.7594 15.9891 24.7426 16.3232 24.7079C16.6174 24.6764 16.9148 24.6301 17.2069 24.5713C21.5695 23.6895 24.7543 19.8164 24.7795 15.3589V15.3084C24.7795 15.0246 24.7669 14.7409 24.7417 14.4665L24.7427 14.4655ZM12.0141 22.0803L8.40694 22.465L9.48395 20.0781L9.26854 19.789C9.25278 19.768 9.23702 19.747 9.21916 19.7228C8.284 18.4311 7.79015 16.905 7.79015 15.3095C7.79015 11.1494 11.1735 7.76507 15.3323 7.76507C19.2285 7.76507 22.5309 10.8057 22.8493 14.6873C22.8661 14.8954 22.8756 15.1045 22.8756 15.3105C22.8756 15.3694 22.8745 15.4272 22.8735 15.4892C22.7936 18.9692 20.3633 21.9248 16.9631 22.6773C16.7035 22.7351 16.4377 22.7793 16.1729 22.8076C15.8976 22.8392 15.615 22.8549 15.3344 22.8549C14.3352 22.8549 13.3643 22.6615 12.447 22.279C12.3451 22.238 12.2453 22.1938 12.1518 22.1486L12.0152 22.0824L12.0141 22.0803Z" fill="#003399"/>
</svg>
