<svg width="49" height="48" viewBox="0 0 49 48" fill="none" xmlns="http://www.w3.org/2000/svg">
<path fill-rule="evenodd" clip-rule="evenodd" d="M24.3335 42C20.7734 42 17.2933 40.9443 14.3332 38.9665C11.3731 36.9886 9.06605 34.1774 7.70367 30.8883C6.3413 27.5992 5.98484 23.98 6.67937 20.4884C7.3739 16.9967 9.08822 13.7894 11.6056 11.2721C14.1229 8.75472 17.3302 7.0404 20.8219 6.34586C24.3135 5.65133 27.9327 6.00782 31.2218 7.3702C34.5109 8.73258 37.3221 11.0397 39.3 13.9998C41.2778 16.9598 42.3335 20.4399 42.3335 24C42.3335 28.7739 40.4371 33.3523 37.0614 36.7279C33.6858 40.1036 29.1074 42 24.3335 42ZM20.0319 11.2036C18.9069 11.5818 17.8308 12.1087 16.8333 12.7751C14.6132 14.2585 12.8829 16.3669 11.8611 18.8337C11.3084 20.1682 10.9764 21.575 10.8706 23H17.3457C17.4665 18.0835 18.4754 13.8948 20.0319 11.2036ZM28.6351 11.2036C30.1915 13.8948 31.2005 18.0835 31.3213 23H37.7964C37.5578 19.7852 36.1744 16.749 33.8795 14.454C32.3917 12.9663 30.5925 11.8617 28.6351 11.2036ZM28.2087 23C28.0575 17.5375 26.6825 13.7892 25.3335 12.4971V23H28.2087ZM25.3335 25H28.2085C28.0558 30.4466 26.6708 34.1889 25.3335 35.4915V25ZM23.3335 23V12.532C22.0187 13.8557 20.6147 17.5858 20.4589 23H23.3335ZM20.4585 25H23.3335V35.4915C21.9962 34.1889 20.6112 30.4466 20.4585 25ZM31.3214 25H37.7964C37.6243 27.3179 36.8559 29.5583 35.5583 31.5002C34.0749 33.7203 31.9665 35.4506 29.4997 36.4724C29.22 36.5882 28.9371 36.6944 28.6516 36.7908C30.2038 34.0994 31.2019 29.9131 31.3214 25ZM20.0319 36.7963C18.0637 36.1347 16.2668 35.0252 14.7876 33.546C12.8995 31.6579 11.6138 29.2524 11.0929 26.6337C10.9852 26.0922 10.9112 25.5466 10.8706 25H17.3457C17.4665 29.9165 18.4754 34.1051 20.0319 36.7963Z" fill="#FF3333"/>
</svg>
