<svg width="49" height="48" viewBox="0 0 49 48" fill="none" xmlns="http://www.w3.org/2000/svg">
<path fill-rule="evenodd" clip-rule="evenodd" d="M29 12V13.5H21.5V12H29ZM18.5 9V13.5H14V12H11V13.5H9.5C8.70435 13.5 7.94124 13.8161 7.37863 14.3787C6.81602 14.9413 6.5 15.7043 6.5 16.5V36C6.5 36.7956 6.81602 37.5587 7.37863 38.1213C7.94124 38.6839 8.70435 39 9.5 39H39.5C40.2957 39 41.0587 38.6839 41.6213 38.1213C42.1839 37.5587 42.5 36.7956 42.5 36V16.5C42.5 15.7043 42.1839 14.9413 41.6213 14.3787C41.0587 13.8161 40.2957 13.5 39.5 13.5H38V12H35V13.5H32V9H18.5ZM9.5 27V36H39.5V27H27.5V24H39.5V16.5H9.5V24H21.5V27H9.5ZM23 24H26V27H23V24Z" fill="#FF3333"/>
</svg>
