<svg width="49" height="48" viewBox="0 0 49 48" fill="none" xmlns="http://www.w3.org/2000/svg">
<path fill-rule="evenodd" clip-rule="evenodd" d="M26.6667 6H23.6667V22.5H7.16675V25.5H23.6667V42H26.6667V25.5H43.1667V22.5H26.6667V6ZM13.1667 7.5H16.1667V12H20.6667V15H16.1667V19.5H13.1667V15H8.66675V12H13.1667V7.5ZM29.6667 12H40.1667V15H29.6667V12ZM40.1667 30H29.6667V33H40.1667V30ZM29.6667 34.5H40.1667V37.5H29.6667V34.5ZM11.2306 27.4292L9.10931 29.5506L12.5459 32.9871L9.10931 36.4237L11.2306 38.545L14.6672 35.1085L18.1143 38.5556L20.2356 36.4342L16.7885 32.9871L20.2356 29.54L18.1143 27.4187L14.6672 30.8658L11.2306 27.4292Z" fill="#FF3333"/>
</svg>
