<svg width="49" height="48" viewBox="0 0 49 48" fill="none" xmlns="http://www.w3.org/2000/svg">
<path fill-rule="evenodd" clip-rule="evenodd" d="M21.8331 6H27.8331V9H27.8335C30.2204 9 32.5096 9.94825 34.1974 11.6361C35.8852 13.3239 36.8335 15.6131 36.8335 18H30.8335C30.8335 17.2044 30.5174 16.4413 29.9548 15.8787C29.3922 15.3161 28.6291 15 27.8335 15H21.8335C21.0378 15 20.2747 15.3161 19.7121 15.8787C19.1495 16.4413 18.8335 17.2044 18.8335 18C18.8335 18.7956 19.1495 19.5587 19.7121 20.1213C20.2747 20.6839 21.0378 21 21.8335 21H27.8335C30.2204 21 32.5096 21.9483 34.1974 23.6361C35.8852 25.3239 36.8335 27.6131 36.8335 30C36.8335 32.3869 35.8852 34.6761 34.1974 36.3639C32.5096 38.0518 30.2204 39 27.8335 39H27.8331V42H21.8331V39C19.4463 38.9999 17.1572 38.0517 15.4695 36.3639C13.7817 34.6761 12.8335 32.3869 12.8335 30H18.8335C18.8335 30.7956 19.1495 31.5587 19.7121 32.1213C20.2747 32.6839 21.0378 33 21.8335 33H27.8335C28.6291 33 29.3922 32.6839 29.9548 32.1213C30.5174 31.5587 30.8335 30.7956 30.8335 30C30.8335 29.2044 30.5174 28.4413 29.9548 27.8787C29.3922 27.3161 28.6291 27 27.8335 27H21.8335C19.4465 27 17.1573 26.0518 15.4695 24.3639C13.7817 22.6761 12.8335 20.3869 12.8335 18C12.8335 15.6131 13.7817 13.3239 15.4695 11.6361C17.1572 9.94834 19.4463 9.0001 21.8331 9V6Z" fill="#FF3333"/>
</svg>
