<svg width="111" height="42" viewBox="0 0 111 42" fill="none" xmlns="http://www.w3.org/2000/svg">
<path d="M35.5421 13.9966C36.2474 13.5309 36.8595 13.145 36.9127 13.145C36.9659 13.145 36.6865 13.5176 36.2873 13.97C33.8388 16.7778 32.1223 20.2508 31.3771 23.9634C30.9513 26.0791 30.9513 29.7252 31.3904 31.7744C32.0291 34.8083 33.3598 37.8822 34.9832 40.0911C35.5022 40.7831 35.7151 41.169 35.5953 41.1956C35.3425 41.2488 33.4663 40.4903 32.6678 39.998C29.9533 38.3479 27.9307 35.66 27.1323 32.6393C26.7331 31.149 26.6399 28.2881 26.9327 26.638C27.7976 21.6613 30.9247 17.0705 35.5421 13.9966Z" fill="white"/>
<path d="M24.9636 21.1822C25.5624 20.7165 26.0813 20.3306 26.1212 20.3306C26.1612 20.3306 25.9882 20.6499 25.722 21.0225C23.4599 24.3492 22.0228 30.5634 22.4885 35.0345C22.7546 37.7224 23.553 40.0112 24.6708 41.3152C24.9369 41.608 25.1498 41.9007 25.1498 41.954C25.1498 42.0072 24.724 42.0205 24.2184 41.9939C21.6635 41.8076 19.4679 39.5987 18.6163 36.3652C18.2836 35.1143 18.2171 32.6127 18.4832 31.2687C19.2017 27.5827 21.6502 23.7637 24.9636 21.1822Z" fill="white"/>
<path fill-rule="evenodd" clip-rule="evenodd" d="M11.9628 8.90017C8.02406 11.2688 4.55101 15.0479 2.52839 19.2129C0.998116 22.3533 0.000114441 26.5183 0.000114441 29.7784V30.7764L0.78521 29.1796C2.99413 24.6154 6.57363 20.8363 10.9382 18.4145L11.8431 17.9088L11.6302 18.4943C11.2842 19.4657 10.8185 21.648 10.5523 23.4577C10.2197 25.8529 10.2197 31.0425 10.5523 32.7724C10.8052 34.0632 11.2709 35.5934 11.4306 35.6999C11.4971 35.7265 11.6967 35.1144 11.883 34.316C13.533 27.3832 18.3368 21.0359 25.5623 16.2588C30.8717 12.7458 37.1524 10.4571 41.5836 10.4304C43.1883 10.4172 43.5608 10.5686 44.0669 10.7744L44.0719 10.7764C44.5806 10.9832 45.2429 11.628 45.2429 12.3466C45.2429 12.4066 45.2324 12.4644 45.2229 12.5166C45.1986 12.6497 45.181 12.7458 45.3627 12.7458C45.6155 12.7458 46.897 11.4817 47.2164 10.7764C47.5091 10.1377 47.5583 9.5522 47.5583 8.5542C47.5716 7.19691 47.3454 6.61142 46.5071 5.75979C45.3893 4.64203 43.9389 4.25613 40.5457 4.13637C39.2549 4.09645 38.1904 4.02992 38.1904 3.99C38.1644 3.93853 38.2295 3.89838 38.3382 3.83134C38.4381 3.76974 38.5747 3.68542 38.7114 3.54875C38.7114 3.54875 38.9397 3.32042 38.9397 3.0921C38.9397 2.86378 38.8256 2.74962 38.4831 2.5213C38.1406 2.29298 35.4492 0.503639 32.535 0.117745C31.0047 -0.0685491 27.0793 -0.0419357 25.3228 0.170972C23.3401 0.410492 21.5304 0.78308 19.6674 1.30204C13.9189 2.92546 7.95753 6.3719 3.5397 10.6167C2.28887 11.8143 0.239635 14.0898 0.319477 14.1829C0.359398 14.2096 0.731979 13.9966 1.15779 13.7172C3.11388 12.3865 6.5071 10.5901 8.96883 9.56551C10.1265 9.08647 12.6947 8.22153 12.9742 8.22153C13.0407 8.22153 12.575 8.52759 11.9628 8.90017ZM33.5991 3.47113C33.3729 3.35137 32.9338 3.17838 32.6011 3.08523C31.6031 2.80579 29.7668 2.85902 28.5558 3.19169C27.9304 3.36467 27.5845 3.51105 27.7441 3.53766C27.8905 3.56428 28.5292 3.76388 29.1813 3.97678C30.6051 4.45582 31.2571 4.45582 32.1753 4.03001C32.5745 3.84372 33.1467 3.69734 33.4394 3.69734L33.9983 3.68404L33.5991 3.47113Z" fill="white"/>
<path d="M103.858 21.8108L101.126 17.7192H103.939L105.125 19.9859L106.589 17.7192H109.402L106.508 21.8108L109.774 26.4835H106.996L105.241 23.6241L103.184 26.4835H100.429L103.858 21.8108Z" fill="white"/>
<path d="M96.7935 23.2288L95.7706 20.3113L94.7478 23.2288H96.7935ZM97.3979 24.9608H94.1433L93.6203 26.4835H91.1909L94.5269 17.7192H97.0144L100.35 26.4835H97.921L97.3979 24.9608Z" fill="white"/>
<path d="M89.5515 19.6488V26.4835H87.2733V19.6488H85.4019V17.7192H91.4229V19.6488H89.5515Z" fill="white"/>
<path d="M80.6345 19.6488H77.9262V21.1133H80.4834V23.0429H77.9262V24.5539H80.6345V26.4835H75.6479V17.7192H80.6345V19.6488Z" fill="white"/>
<path d="M71.7399 17.7192V24.5539H74.4715V26.4835H69.4617V17.7192H71.7399Z" fill="white"/>
<path d="M63.5 21.5782H68.0216C68.0216 22.0432 68.0022 22.4655 67.9634 22.8452C67.9247 23.2249 67.8472 23.5775 67.731 23.903C67.5682 24.3602 67.3474 24.767 67.0684 25.1235C66.7894 25.4722 66.4601 25.7666 66.0804 26.0069C65.7084 26.2393 65.2977 26.4176 64.8483 26.5415C64.3988 26.6655 63.9262 26.7275 63.4302 26.7275C62.7483 26.7275 62.1245 26.6152 61.5588 26.3904C61.0009 26.1657 60.5204 25.8519 60.1175 25.4489C59.7145 25.0382 59.4007 24.55 59.176 23.9843C58.9512 23.4109 58.8389 22.7794 58.8389 22.0897C58.8389 21.4078 58.9474 20.784 59.1643 20.2183C59.3891 19.6448 59.7029 19.1567 60.1058 18.7537C60.5165 18.3507 61.0086 18.0369 61.582 17.8122C62.1555 17.5875 62.7948 17.4751 63.5 17.4751C64.4143 17.4751 65.2164 17.6727 65.906 18.0679C66.5957 18.4631 67.142 19.0753 67.545 19.9044L65.383 20.7995C65.1815 20.319 64.918 19.9742 64.5926 19.765C64.2749 19.5557 63.9107 19.4511 63.5 19.4511C63.159 19.4511 62.849 19.517 62.5701 19.6487C62.2911 19.7727 62.0509 19.9548 61.8494 20.195C61.6557 20.4275 61.5007 20.7103 61.3844 21.0436C61.276 21.3768 61.2217 21.7487 61.2217 22.1594C61.2217 22.5314 61.2682 22.8762 61.3612 23.1939C61.4619 23.5116 61.6092 23.7867 61.8029 24.0192C61.9966 24.2517 62.2368 24.4338 62.5236 24.5655C62.8103 24.6895 63.1435 24.7515 63.5232 24.7515C63.7479 24.7515 63.9649 24.7283 64.1741 24.6818C64.3833 24.6275 64.5693 24.5462 64.7321 24.4377C64.9025 24.3214 65.042 24.1742 65.1505 23.996C65.259 23.8177 65.3326 23.6008 65.3714 23.345H63.5V21.5782Z" fill="white"/>
<path d="M54.9642 23.2288L53.9413 20.3113L52.9184 23.2288H54.9642ZM55.5686 24.9608H52.314L51.7909 26.4835H49.3616L52.6976 17.7192H55.185L58.521 26.4835H56.0917L55.5686 24.9608Z" fill="white"/>
<path d="M48.5561 19.6488H45.8478V21.1133H48.405V23.0429H45.8478V24.5539H48.5561V26.4835H43.5696V17.7192H48.5561V19.6488Z" fill="white"/>
<path d="M108.585 34.036C108.734 34.036 108.84 34.0269 108.904 34.0089C108.967 33.9908 109.008 33.9591 109.026 33.9139C109.044 33.8642 109.053 33.7828 109.053 33.6698V30.1711C109.053 30.0536 109.039 29.9767 109.012 29.9406C108.985 29.8999 108.931 29.8796 108.849 29.8796H108.619V29.6761L109.439 29.5405H109.629V33.6698C109.629 33.7828 109.638 33.8642 109.656 33.9139C109.674 33.9591 109.715 33.9908 109.778 34.0089C109.842 34.0269 109.946 34.036 110.09 34.036V34.2326H108.585V34.036Z" fill="white"/>
<path d="M107.831 34.1243C107.745 34.1785 107.657 34.2215 107.567 34.2531C107.476 34.2847 107.359 34.3006 107.214 34.3006C107.078 34.3006 106.974 34.2734 106.902 34.2192C106.834 34.165 106.794 34.0474 106.78 33.8666C106.613 34.0113 106.45 34.122 106.292 34.1989C106.134 34.2712 105.957 34.3073 105.763 34.3073C105.514 34.3073 105.311 34.2508 105.153 34.1378C104.999 34.0203 104.922 33.8508 104.922 33.6293C104.922 33.3129 105.083 33.0371 105.404 32.8021C105.724 32.567 106.183 32.402 106.78 32.3071V31.9138C106.78 31.6833 106.733 31.5115 106.638 31.3985C106.547 31.2855 106.389 31.229 106.163 31.229C106.005 31.229 105.862 31.2584 105.736 31.3172C105.609 31.3759 105.546 31.4347 105.546 31.4935C105.546 31.5251 105.566 31.559 105.607 31.5952C105.652 31.6268 105.686 31.6607 105.709 31.6969C105.736 31.7285 105.749 31.7782 105.749 31.846C105.749 31.941 105.722 32.0178 105.668 32.0766C105.614 32.1308 105.537 32.1579 105.437 32.1579C105.333 32.1579 105.25 32.1263 105.187 32.063C105.128 31.9997 105.098 31.9116 105.098 31.7986C105.098 31.6584 105.144 31.5274 105.234 31.4053C105.329 31.2833 105.469 31.1838 105.654 31.107C105.844 31.0301 106.075 30.9917 106.346 30.9917C106.69 30.9917 106.943 31.0618 107.105 31.2019C107.268 31.342 107.35 31.5861 107.35 31.9342V33.5412C107.35 33.7174 107.368 33.8395 107.404 33.9073C107.444 33.9706 107.508 34.0022 107.594 34.0022C107.648 34.0022 107.711 33.9864 107.783 33.9548L107.831 34.1243ZM105.532 33.4666C105.532 33.6248 105.578 33.7446 105.668 33.8259C105.758 33.9028 105.889 33.9412 106.061 33.9412C106.188 33.9412 106.308 33.9141 106.421 33.8598C106.538 33.8056 106.658 33.7333 106.78 33.6429V32.5241C106.36 32.6145 106.045 32.7365 105.837 32.8902C105.634 33.0394 105.532 33.2315 105.532 33.4666Z" fill="white"/>
<path d="M102.619 30.9848C103.017 30.9848 103.32 31.1204 103.528 31.3916C103.74 31.6583 103.846 32.0538 103.846 32.5782C103.846 33.1703 103.72 33.6088 103.467 33.8936C103.214 34.1738 102.865 34.314 102.422 34.314C102.083 34.314 101.776 34.2077 101.5 33.9953H101.446L101.243 34.2326H101.032V30.1982C101.032 30.0671 101.017 29.9835 100.985 29.9474C100.958 29.9067 100.895 29.8863 100.795 29.8863H100.585V29.6829L101.419 29.5405H101.609V31.317H101.622C101.903 31.0955 102.235 30.9848 102.619 30.9848ZM102.341 34.097C102.626 34.097 102.841 33.984 102.985 33.758C103.134 33.5274 103.209 33.1658 103.209 32.6731C103.209 31.7329 102.933 31.2628 102.382 31.2628C102.233 31.2628 102.095 31.2944 101.968 31.3577C101.846 31.421 101.726 31.5046 101.609 31.6086V33.758C101.826 33.984 102.07 34.097 102.341 34.097Z" fill="white"/>
<path d="M98.2194 34.3072C97.2385 34.3072 96.748 33.7535 96.748 32.646C96.748 32.0991 96.8701 31.6855 97.1142 31.4052C97.3583 31.1204 97.729 30.978 98.2262 30.978C99.2071 30.978 99.6976 31.5318 99.6976 32.6392C99.6976 33.7512 99.2048 34.3072 98.2194 34.3072ZM98.2262 34.0903C98.7867 34.0903 99.067 33.6179 99.067 32.6731C99.067 31.6877 98.7844 31.195 98.2194 31.195C97.9391 31.195 97.729 31.3193 97.5888 31.5679C97.4487 31.812 97.3786 32.1714 97.3786 32.646C97.3786 33.6088 97.6612 34.0903 98.2262 34.0903Z" fill="white"/>
<path d="M94.3108 34.036C94.46 34.036 94.5662 34.0269 94.6295 34.0089C94.6928 33.9908 94.7334 33.9591 94.7515 33.9139C94.7696 33.8642 94.7786 33.7828 94.7786 33.6698V30.1711C94.7786 30.0536 94.7651 29.9767 94.738 29.9406C94.7108 29.8999 94.6566 29.8796 94.5752 29.8796H94.3447V29.6761L95.1651 29.5405H95.355V33.6698C95.355 33.7828 95.364 33.8642 95.3821 33.9139C95.4002 33.9591 95.4409 33.9908 95.5042 34.0089C95.5674 34.0269 95.6714 34.036 95.8161 34.036V34.2326H94.3108V34.036Z" fill="white"/>
<path d="M91.5714 34.3141C91.1374 34.3141 90.7645 34.2214 90.4526 34.0361C90.1407 33.8508 89.9011 33.5886 89.7338 33.2496C89.5711 32.906 89.4897 32.5015 89.4897 32.0359C89.4897 31.5612 89.5756 31.1476 89.7474 30.795C89.9192 30.4379 90.1655 30.1622 90.4865 29.9678C90.8119 29.7735 91.1984 29.6763 91.6459 29.6763C91.8403 29.6763 92.003 29.6921 92.1341 29.7237C92.2652 29.7554 92.3963 29.7983 92.5274 29.8526C92.6494 29.9023 92.7353 29.9271 92.7851 29.9271C92.8664 29.9271 92.9184 29.8955 92.941 29.8322L92.9749 29.7576H93.1376L93.2054 30.9781H93.0224C92.95 30.6933 92.8122 30.4447 92.6088 30.2323C92.4053 30.0153 92.1115 29.9068 91.7273 29.9068C91.3476 29.9068 91.0447 30.0176 90.8187 30.239C90.5927 30.456 90.4345 30.725 90.3441 31.0459C90.2537 31.3623 90.2085 31.6833 90.2085 32.0087C90.2085 32.3704 90.2627 32.7094 90.3712 33.0258C90.4797 33.3377 90.6492 33.5931 90.8797 33.792C91.1148 33.9864 91.4109 34.0836 91.768 34.0836C91.9714 34.0836 92.15 34.0497 92.3036 33.9819C92.4573 33.9095 92.5477 33.7875 92.5749 33.6157V32.7207C92.5749 32.5987 92.5477 32.5128 92.4935 32.463C92.4393 32.4133 92.3398 32.3885 92.1952 32.3885H92.0799V32.1918H93.5445V32.3885H93.4495C93.3637 32.3885 93.3004 32.4111 93.2597 32.4563C93.219 32.4969 93.1987 32.5693 93.1987 32.6732V34.2463H93.0698C93.0472 34.1875 93.0179 34.1446 92.9817 34.1175C92.95 34.0858 92.9048 34.07 92.8461 34.07C92.7918 34.07 92.6856 34.0949 92.5274 34.1446C92.3737 34.1943 92.2223 34.235 92.0731 34.2666C91.9285 34.2983 91.7612 34.3141 91.5714 34.3141Z" fill="white"/>
<path d="M85.9189 30.9849C86.0636 30.9849 86.1811 31.0255 86.2715 31.1069C86.3664 31.1883 86.4139 31.2922 86.4139 31.4188C86.4139 31.5137 86.389 31.5906 86.3393 31.6493C86.2896 31.7081 86.2218 31.7375 86.1359 31.7375C86.0545 31.7375 85.989 31.7149 85.9393 31.6697C85.8895 31.6245 85.8647 31.5702 85.8647 31.507C85.8647 31.4753 85.8692 31.4437 85.8782 31.412C85.8873 31.3804 85.8918 31.3555 85.8918 31.3374C85.8918 31.3103 85.8782 31.2855 85.8511 31.2629C85.824 31.2403 85.7901 31.229 85.7494 31.229C85.6681 31.229 85.5754 31.299 85.4714 31.4392C85.5935 31.6064 85.6545 31.8098 85.6545 32.0494C85.6545 32.411 85.5302 32.6777 85.2816 32.8495C85.0375 33.0167 84.7346 33.1004 84.373 33.1004C84.2103 33.1004 84.0588 33.0845 83.9187 33.0529C83.7017 33.1704 83.5932 33.297 83.5932 33.4326C83.5932 33.514 83.6384 33.5818 83.7288 33.636C83.8238 33.6903 83.982 33.7174 84.2035 33.7174H84.6917C85.1166 33.7174 85.4262 33.7897 85.6206 33.9344C85.8195 34.079 85.9189 34.2937 85.9189 34.5785C85.9189 34.9447 85.772 35.2181 85.4782 35.3989C85.1844 35.5798 84.8069 35.6702 84.3459 35.6702C83.9345 35.6702 83.6 35.6001 83.3424 35.46C83.0892 35.3198 82.9626 35.1096 82.9626 34.8294C82.9626 34.6757 83.0078 34.5446 83.0983 34.4361C83.1887 34.3322 83.3378 34.2395 83.5458 34.1581C83.4102 34.1129 83.3039 34.0451 83.2271 33.9547C83.1502 33.8598 83.1118 33.7558 83.1118 33.6428C83.1118 33.5208 83.1615 33.4032 83.261 33.2902C83.3604 33.1772 83.5051 33.0732 83.6949 32.9783C83.2926 32.8065 83.0915 32.4992 83.0915 32.0562C83.0915 31.6946 83.218 31.4256 83.4712 31.2493C83.7288 31.073 84.034 30.9849 84.3865 30.9849C84.5764 30.9849 84.755 31.012 84.9222 31.0662C85.0895 31.116 85.2318 31.1928 85.3494 31.2968C85.5076 31.0888 85.6974 30.9849 85.9189 30.9849ZM84.3594 32.8834C84.6126 32.8834 84.7911 32.8111 84.8951 32.6664C85.0036 32.5218 85.0578 32.3048 85.0578 32.0155C85.0578 31.7578 85.0058 31.5589 84.9019 31.4188C84.8024 31.2787 84.6329 31.2086 84.3933 31.2086C84.1492 31.2086 83.9752 31.2832 83.8712 31.4324C83.7673 31.577 83.7153 31.7872 83.7153 32.063C83.7153 32.3206 83.7627 32.5218 83.8577 32.6664C83.9571 32.8111 84.1244 32.8834 84.3594 32.8834ZM83.9051 34.2124C83.756 34.2711 83.6497 34.3502 83.5865 34.4497C83.5277 34.5536 83.4983 34.6621 83.4983 34.7751C83.4983 34.9831 83.5819 35.1481 83.7492 35.2701C83.921 35.3967 84.147 35.46 84.4272 35.46C84.721 35.46 84.9584 35.3944 85.1392 35.2633C85.32 35.1368 85.4104 34.956 85.4104 34.7209C85.4104 34.5446 85.3449 34.4158 85.2138 34.3344C85.0827 34.253 84.8589 34.2124 84.5425 34.2124H83.9051Z" fill="white"/>
<path d="M81.7578 33.6699C81.7578 33.7829 81.7668 33.8643 81.7849 33.914C81.803 33.9592 81.8437 33.9909 81.907 34.0089C81.9703 34.027 82.0765 34.0361 82.2257 34.0361V34.2327H80.7407V34.0361C80.8854 34.0361 80.9871 34.0293 81.0459 34.0157C81.1046 33.9976 81.143 33.966 81.1611 33.9208C81.1792 33.8756 81.1882 33.7965 81.1882 33.6835V32.0358C81.1882 31.8189 81.1363 31.6448 81.0323 31.5137C80.9329 31.3781 80.7746 31.3103 80.5577 31.3103C80.3814 31.3103 80.2322 31.3533 80.1102 31.4392C79.9881 31.5205 79.8706 31.638 79.7576 31.7917V33.6835C79.7576 33.7965 79.7666 33.8779 79.7847 33.9276C79.8028 33.9728 79.8412 34.0022 79.9 34.0157C79.9587 34.0293 80.0582 34.0361 80.1983 34.0361V34.2327H78.7134V34.0361C78.8625 34.0361 78.9688 34.027 79.0321 34.0089C79.0953 33.9909 79.1338 33.9592 79.1473 33.914C79.1654 33.8688 79.1745 33.7875 79.1745 33.6699V31.6493C79.1745 31.5318 79.1609 31.455 79.1338 31.4188C79.1066 31.3781 79.0547 31.3578 78.9778 31.3578H78.7473V31.1544L79.5474 31.0188H79.7372V31.5205H79.744C79.8977 31.3397 80.0627 31.2064 80.239 31.1205C80.4153 31.0301 80.6164 30.9849 80.8424 30.9849C81.4527 30.9849 81.7578 31.3103 81.7578 31.9612V33.6699Z" fill="white"/>
<path d="M76.9584 30.4221C76.8499 30.4221 76.7595 30.3882 76.6871 30.3204C76.6193 30.2481 76.5854 30.1599 76.5854 30.056C76.5854 29.9475 76.6193 29.8571 76.6871 29.7848C76.7595 29.7124 76.8499 29.6763 76.9584 29.6763C77.0714 29.6763 77.1618 29.7124 77.2296 29.7848C77.2974 29.8571 77.3313 29.9475 77.3313 30.056C77.3313 30.1599 77.2951 30.2481 77.2228 30.3204C77.155 30.3882 77.0669 30.4221 76.9584 30.4221ZM76.2261 34.0361C76.3752 34.0361 76.4815 34.0271 76.5448 34.009C76.608 33.9909 76.6465 33.9593 76.66 33.9141C76.6781 33.8689 76.6871 33.7875 76.6871 33.67V31.6494C76.6871 31.5319 76.6736 31.455 76.6465 31.4188C76.6239 31.3782 76.5719 31.3578 76.4905 31.3578H76.26V31.1544L77.0804 31.0188H77.2703V33.67C77.2703 33.7875 77.2793 33.8711 77.2974 33.9208C77.3155 33.966 77.3539 33.9977 77.4127 34.0158C77.4759 34.0293 77.5822 34.0361 77.7313 34.0361V34.2327H76.2261V34.0361Z" fill="white"/>
<path d="M75.3793 34.036V34.2326H74.4301L74.3826 33.9071C74.2379 34.0247 74.0843 34.1219 73.9215 34.1987C73.7588 34.2756 73.5667 34.314 73.3452 34.314C72.9474 34.314 72.6423 34.1761 72.4298 33.9004C72.2219 33.6246 72.1179 33.2246 72.1179 32.7002C72.1179 32.1171 72.2445 31.6854 72.4976 31.4052C72.7508 31.1249 73.1033 30.9848 73.5554 30.9848C73.8492 30.9848 74.1114 31.0729 74.3419 31.2492V31.2221H74.3623V30.1915C74.3623 30.0694 74.3487 29.988 74.3216 29.9474C74.2945 29.9067 74.2402 29.8863 74.1588 29.8863H73.9147V29.6897L74.7487 29.5405H74.9318V33.7173C74.9318 33.8439 74.9499 33.9297 74.9861 33.975C75.0267 34.0156 75.0991 34.036 75.203 34.036H75.3793ZM72.7553 32.6189C72.7553 33.5591 73.031 34.0292 73.5825 34.0292C73.7317 34.0292 73.865 33.9953 73.9825 33.9275C74.1001 33.8597 74.2266 33.7648 74.3623 33.6427V31.5408C74.1408 31.3102 73.8967 31.195 73.63 31.195C73.3407 31.195 73.1214 31.308 72.9723 31.534C72.8276 31.76 72.7553 32.1216 72.7553 32.6189Z" fill="white"/>
<path d="M70.8971 30.978C71.0598 30.978 71.1841 31.0255 71.27 31.1204C71.3604 31.2153 71.4056 31.3464 71.4056 31.5137C71.4056 31.6493 71.374 31.7555 71.3107 31.8324C71.2474 31.9092 71.1502 31.9476 71.0191 31.9476C70.9061 31.9476 70.818 31.9183 70.7547 31.8595C70.6959 31.8007 70.6666 31.7239 70.6666 31.629C70.6666 31.5747 70.6756 31.5295 70.6937 31.4933C70.7118 31.4572 70.7389 31.4188 70.775 31.3781C70.8112 31.3374 70.8293 31.3057 70.8293 31.2831C70.8293 31.2425 70.7999 31.2221 70.7411 31.2221C70.6553 31.2221 70.5626 31.2651 70.4631 31.351C70.3682 31.4368 70.2846 31.5544 70.2123 31.7035C70.1399 31.8482 70.0947 32.0064 70.0767 32.1782V33.6699C70.0767 33.7874 70.0857 33.871 70.1038 33.9207C70.1264 33.966 70.1716 33.9976 70.2394 34.0157C70.3072 34.0292 70.4225 34.036 70.5852 34.036V34.2327H69.0325V34.036C69.1816 34.036 69.2879 34.027 69.3512 34.0089C69.4144 33.9908 69.4529 33.9592 69.4664 33.914C69.4845 33.8688 69.4935 33.7874 69.4935 33.6699V31.6493C69.4935 31.5318 69.48 31.4549 69.4529 31.4188C69.4257 31.3781 69.3738 31.3577 69.2969 31.3577H69.0664V31.1543L69.8665 31.0187H70.0563V31.6561H70.0631C70.1625 31.4662 70.2756 31.3057 70.4021 31.1747C70.5287 31.0436 70.6937 30.978 70.8971 30.978Z" fill="white"/>
<path d="M68.0028 32.6732H65.8466C65.8557 33.0936 65.9303 33.4258 66.0704 33.6699C66.2151 33.914 66.4682 34.0361 66.8298 34.0361C67.092 34.0361 67.2999 33.9683 67.4536 33.8327C67.6073 33.697 67.7203 33.523 67.7926 33.3106L67.9825 33.3919C67.8876 33.6677 67.7407 33.8892 67.5418 34.0564C67.3429 34.2237 67.0468 34.3073 66.6535 34.3073C66.1698 34.3073 65.8082 34.1672 65.5686 33.8869C65.3336 33.6066 65.2161 33.2043 65.2161 32.68C65.2161 32.1421 65.3381 31.7262 65.5822 31.4324C65.8263 31.134 66.1857 30.9849 66.6603 30.9849C67.5553 30.9849 68.0028 31.5273 68.0028 32.6122V32.6732ZM67.3723 32.4562C67.3723 32.0268 67.3203 31.7104 67.2163 31.507C67.1123 31.299 66.9293 31.1951 66.6671 31.1951C66.4004 31.1951 66.2015 31.3013 66.0704 31.5137C65.9393 31.7217 65.8647 32.0358 65.8466 32.4562H67.3723Z" fill="white"/>
<path d="M63.8601 33.6699C63.8601 33.7829 63.8691 33.8643 63.8872 33.914C63.9053 33.9637 63.946 33.9976 64.0092 34.0157C64.0725 34.0293 64.1788 34.0361 64.3279 34.0361V34.2327H62.843V34.0361C62.9877 34.0361 63.0894 34.0293 63.1481 34.0157C63.2069 33.9976 63.2453 33.966 63.2634 33.9208C63.2815 33.8756 63.2905 33.7965 63.2905 33.6835V32.0358C63.2905 31.8143 63.2453 31.638 63.1549 31.507C63.0645 31.3759 62.9176 31.3103 62.7142 31.3103C62.556 31.3103 62.4158 31.3555 62.2938 31.4459C62.1717 31.5318 62.0565 31.6516 61.948 31.8053V33.6699C61.948 33.7829 61.957 33.8643 61.9751 33.914C61.9932 33.9592 62.0316 33.9909 62.0904 34.0089C62.1537 34.027 62.2554 34.0361 62.3955 34.0361V34.2327H60.9309V34.0361C61.0756 34.0361 61.1773 34.0293 61.236 34.0157C61.2948 33.9976 61.3332 33.966 61.3513 33.9208C61.3694 33.8756 61.3784 33.7965 61.3784 33.6835V32.0358C61.3784 31.8143 61.3332 31.638 61.2428 31.507C61.1524 31.3759 61.0055 31.3103 60.8021 31.3103C60.5173 31.3103 60.2619 31.4685 60.0359 31.785V33.6835C60.0359 33.7965 60.0449 33.8779 60.063 33.9276C60.0811 33.9728 60.1195 34.0022 60.1783 34.0157C60.237 34.0293 60.3365 34.0361 60.4766 34.0361V34.2327H58.9917V34.0361C59.1409 34.0361 59.2471 34.027 59.3104 34.0089C59.3737 33.9909 59.4121 33.9592 59.4256 33.914C59.4437 33.8688 59.4528 33.7875 59.4528 33.6699V31.6493C59.4528 31.5318 59.4392 31.455 59.4121 31.4188C59.385 31.3781 59.333 31.3578 59.2561 31.3578H59.0256V31.1544L59.8257 31.0188H60.0155V31.507H60.0223C60.3207 31.1589 60.6778 30.9849 61.0936 30.9849C61.3197 30.9849 61.5027 31.0346 61.6429 31.134C61.783 31.2335 61.8757 31.3668 61.9209 31.5341C62.2011 31.1679 62.5627 30.9849 63.0057 30.9849C63.295 30.9849 63.5097 31.0662 63.6499 31.229C63.79 31.3872 63.8601 31.6313 63.8601 31.9612V33.6699Z" fill="white"/>
<path d="M57.7238 33.6699C57.7238 33.7829 57.7329 33.8643 57.751 33.914C57.769 33.9637 57.8097 33.9976 57.873 34.0157C57.9363 34.0293 58.0425 34.0361 58.1917 34.0361V34.2327H56.7068V34.0361C56.8514 34.0361 56.9531 34.0293 57.0119 34.0157C57.0707 33.9976 57.1091 33.966 57.1272 33.9208C57.1452 33.8756 57.1543 33.7965 57.1543 33.6835V32.0358C57.1543 31.8143 57.1091 31.638 57.0187 31.507C56.9283 31.3759 56.7814 31.3103 56.5779 31.3103C56.4197 31.3103 56.2796 31.3555 56.1576 31.4459C56.0355 31.5318 55.9202 31.6516 55.8118 31.8053V33.6699C55.8118 33.7829 55.8208 33.8643 55.8389 33.914C55.857 33.9592 55.8954 33.9909 55.9541 34.0089C56.0174 34.027 56.1191 34.0361 56.2593 34.0361V34.2327H54.7947V34.0361C54.9393 34.0361 55.041 34.0293 55.0998 34.0157C55.1586 33.9976 55.197 33.966 55.2151 33.9208C55.2332 33.8756 55.2422 33.7965 55.2422 33.6835V32.0358C55.2422 31.8143 55.197 31.638 55.1066 31.507C55.0162 31.3759 54.8693 31.3103 54.6659 31.3103C54.3811 31.3103 54.1257 31.4685 53.8997 31.785V33.6835C53.8997 33.7965 53.9087 33.8779 53.9268 33.9276C53.9449 33.9728 53.9833 34.0022 54.0421 34.0157C54.1008 34.0293 54.2003 34.0361 54.3404 34.0361V34.2327H52.8555V34.0361C53.0046 34.0361 53.1109 34.027 53.1742 34.0089C53.2374 33.9909 53.2759 33.9592 53.2894 33.914C53.3075 33.8688 53.3165 33.7875 53.3165 33.6699V31.6493C53.3165 31.5318 53.303 31.455 53.2759 31.4188C53.2487 31.3781 53.1968 31.3578 53.1199 31.3578H52.8894V31.1544L53.6895 31.0188H53.8793V31.507H53.8861C54.1844 31.1589 54.5415 30.9849 54.9574 30.9849C55.1834 30.9849 55.3665 31.0346 55.5066 31.134C55.6468 31.2335 55.7394 31.3668 55.7846 31.5341C56.0649 31.1679 56.4265 30.9849 56.8695 30.9849C57.1588 30.9849 57.3735 31.0662 57.5136 31.229C57.6538 31.3872 57.7238 31.6313 57.7238 31.9612V33.6699Z" fill="white"/>
<path d="M50.3317 34.3072C49.3508 34.3072 48.8604 33.7535 48.8604 32.646C48.8604 32.0991 48.9824 31.6855 49.2265 31.4052C49.4706 31.1204 49.8413 30.978 50.3385 30.978C51.3194 30.978 51.8099 31.5318 51.8099 32.6392C51.8099 33.7512 51.3171 34.3072 50.3317 34.3072ZM50.3385 34.0903C50.899 34.0903 51.1793 33.6179 51.1793 32.6731C51.1793 31.6877 50.8968 31.195 50.3317 31.195C50.0515 31.195 49.8413 31.3193 49.7011 31.5679C49.561 31.812 49.4909 32.1714 49.4909 32.646C49.4909 33.6088 49.7735 34.0903 50.3385 34.0903Z" fill="white"/>
<path d="M43.4001 34.0358C43.5719 34.0358 43.6917 34.0268 43.7595 34.0087C43.8318 33.9906 43.877 33.959 43.8951 33.9137C43.9132 33.864 43.9222 33.7781 43.9222 33.6561V30.3404C43.9222 30.2229 43.9109 30.1393 43.8883 30.0896C43.8703 30.0398 43.8251 30.0059 43.7527 29.9879C43.6849 29.9698 43.5674 29.9585 43.4001 29.954V29.7573H45.0681V29.954C44.9009 29.954 44.7811 29.9653 44.7088 29.9879C44.641 30.0059 44.5958 30.0398 44.5732 30.0896C44.5551 30.1393 44.546 30.2229 44.546 30.3404V31.7711H46.7294V30.3404C46.7294 30.2229 46.7181 30.1393 46.6955 30.0896C46.6774 30.0398 46.6322 30.0059 46.5598 29.9879C46.492 29.9653 46.3745 29.954 46.2073 29.954V29.7573H47.8753V29.954C47.708 29.9585 47.5882 29.9698 47.5159 29.9879C47.4481 30.0059 47.4029 30.0398 47.3803 30.0896C47.3622 30.1393 47.3532 30.2229 47.3532 30.3404V33.6561C47.3532 33.7736 47.3622 33.8572 47.3803 33.907C47.4029 33.9567 47.4481 33.9906 47.5159 34.0087C47.5882 34.0268 47.708 34.0358 47.8753 34.0358V34.2324H46.2073V34.0358C46.379 34.0358 46.4988 34.0268 46.5666 34.0087C46.6389 33.9906 46.6842 33.959 46.7022 33.9137C46.7203 33.864 46.7294 33.7781 46.7294 33.6561V32.0288H44.546V33.6561C44.546 33.7736 44.5551 33.8572 44.5732 33.907C44.5958 33.9567 44.641 33.9906 44.7088 34.0087C44.7811 34.0268 44.9009 34.0358 45.0681 34.0358V34.2324H43.4001V34.0358Z" fill="white"/>
</svg>
