<svg width="206" height="79" viewBox="0 0 206 79" fill="none" xmlns="http://www.w3.org/2000/svg">
<path d="M66.5061 26.2032C67.8258 25.3317 68.9712 24.6097 69.0708 24.6097C69.1704 24.6097 68.6475 25.3068 67.9005 26.1534C63.319 31.4071 60.107 37.9058 58.7126 44.8527C57.9158 48.8117 57.9158 55.6341 58.7375 59.4686C59.9327 65.1456 62.4226 70.8973 65.4604 75.0306C66.4314 76.3253 66.8298 77.0474 66.6057 77.0972C66.1326 77.1968 62.6218 75.7776 61.1279 74.8563C56.0484 71.7688 52.2637 66.7391 50.7697 61.087C50.0227 58.2983 49.8484 52.945 50.3962 49.8575C52.0147 40.5452 57.866 31.9549 66.5061 26.2032Z" fill="#E23636"/>
<path d="M46.7116 39.6485C47.832 38.777 48.8031 38.055 48.8778 38.055C48.9525 38.055 48.6288 38.6525 48.1308 39.3497C43.8979 45.5745 41.2088 57.2025 42.0803 65.5686C42.5782 70.5982 44.0722 74.8809 46.1638 77.321C46.6618 77.8688 47.0601 78.4166 47.0601 78.5162C47.0601 78.6158 46.2634 78.6407 45.3172 78.5909C40.5365 78.2423 36.4281 74.109 34.8345 68.0585C34.212 65.718 34.0875 61.0369 34.5855 58.5221C35.9301 51.625 40.5116 44.479 46.7116 39.6485Z" fill="#E23636"/>
<path d="M4.73089 35.9635C8.5156 28.17 15.0143 21.0987 22.3846 16.6666C23.5299 15.9694 24.4014 15.3967 24.2769 15.3967C23.754 15.3967 18.9485 17.0152 16.7822 17.9116C12.1758 19.8288 5.82646 23.1902 2.16624 25.6801C1.36946 26.203 0.672286 26.6014 0.597587 26.5516C0.448191 26.3773 4.2827 22.1195 6.62325 19.8786C14.8899 11.9357 26.0448 5.48685 36.8013 2.44914C40.2872 1.47807 43.6736 0.780896 47.3836 0.33271C50.6703 -0.0656779 58.0156 -0.115476 60.8791 0.233113C66.332 0.95519 71.3682 4.30337 72.009 4.7306C72.6499 5.15783 72.8635 5.37144 72.8635 5.79867C72.8635 6.2259 72.4363 6.65313 72.4363 6.65313C71.9022 7.18716 71.3682 7.29397 71.4613 7.47879C71.4613 7.55349 73.4533 7.67798 75.8685 7.75268C82.2178 7.97677 84.9319 8.69885 87.0234 10.7904C88.5921 12.3839 89.0154 13.4795 88.9905 16.0192C88.9905 17.8867 88.8985 18.9822 88.3507 20.1774C87.7531 21.4971 85.3552 23.8625 84.8821 23.8625C84.409 23.8625 84.658 23.5139 84.658 23.1155C84.658 21.7709 83.4187 20.5644 82.4669 20.1774C81.515 19.7904 80.8235 19.5051 77.8107 19.53C69.5191 19.5798 57.7666 23.8625 47.8318 30.4359C34.3114 39.3747 25.3227 51.2516 22.2352 64.2241C21.8866 65.7181 21.5131 66.8634 21.3886 66.8136C21.0898 66.6144 20.2183 63.751 19.7452 61.3358C19.1227 58.0989 19.1227 48.3882 19.7452 43.9064C20.2432 40.5201 21.1147 36.4366 21.7621 34.6189L22.1605 33.5234L20.4673 34.4696C12.3003 39.0012 5.60237 46.0726 1.46907 54.613L0 57.6009V55.7335C0 49.6332 1.86746 41.8397 4.73089 35.9635Z" fill="white"/>
<path d="M61.0036 5.78566C61.626 5.95995 62.4477 6.28364 62.871 6.50773L63.618 6.90612L62.5722 6.93102C62.0244 6.93102 60.9538 7.20491 60.2068 7.5535C58.4887 8.35028 57.2686 8.35028 54.6044 7.4539C53.3843 7.05552 52.1892 6.68203 51.9153 6.63223C51.6165 6.58243 52.2639 6.30854 53.4341 5.98485C55.7 5.36237 59.1361 5.26277 61.0036 5.78566Z" fill="#003399"/>
<path d="M194.338 40.8247L189.227 33.1687H194.49L196.709 37.4099L199.449 33.1687H204.713L199.297 40.8247L205.409 49.5681H200.211L196.926 44.2177L193.077 49.5681H187.922L194.338 40.8247Z" fill="white"/>
<path d="M181.119 43.4782L179.205 38.0189L177.291 43.4782H181.119ZM182.25 46.7189H176.16L175.181 49.5681H170.636L176.878 33.1687H181.532L187.775 49.5681H183.229L182.25 46.7189Z" fill="white"/>
<path d="M167.568 36.7792V49.5681H163.305V36.7792H159.803V33.1687H171.07V36.7792H167.568Z" fill="white"/>
<path d="M150.883 36.7792H145.815V39.5197H150.6V43.1302H145.815V45.9576H150.883V49.5681H141.552V33.1687H150.883V36.7792Z" fill="white"/>
<path d="M134.239 33.1687V45.9576H139.351V49.5681H129.976V33.1687H134.239Z" fill="white"/>
<path d="M118.821 40.3896H127.282C127.282 41.2596 127.245 42.0499 127.173 42.7604C127.1 43.4709 126.955 44.1306 126.738 44.7396C126.433 45.5951 126.02 46.3564 125.498 47.0234C124.976 47.6759 124.36 48.2269 123.649 48.6764C122.953 49.1114 122.185 49.4449 121.344 49.6769C120.503 49.9089 119.618 50.0249 118.69 50.0249C117.414 50.0249 116.247 49.8146 115.188 49.3941C114.144 48.9736 113.245 48.3864 112.491 47.6324C111.737 46.8639 111.15 45.9504 110.73 44.8919C110.309 43.8189 110.099 42.6371 110.099 41.3466C110.099 40.0706 110.302 38.9034 110.708 37.8449C111.128 36.7719 111.716 35.8584 112.47 35.1044C113.238 34.3504 114.159 33.7632 115.232 33.3427C116.305 32.9222 117.501 32.7119 118.821 32.7119C120.532 32.7119 122.033 33.0817 123.323 33.8212C124.614 34.5607 125.636 35.7062 126.39 37.2576L122.344 38.9324C121.967 38.0334 121.474 37.3881 120.865 36.9967C120.271 36.6052 119.589 36.4094 118.821 36.4094C118.183 36.4094 117.603 36.5327 117.081 36.7792C116.559 37.0112 116.109 37.3519 115.732 37.8014C115.37 38.2364 115.08 38.7656 114.862 39.3891C114.659 40.0126 114.558 40.7086 114.558 41.4771C114.558 42.1731 114.645 42.8184 114.819 43.4129C115.007 44.0074 115.283 44.5221 115.645 44.9571C116.008 45.3921 116.457 45.7329 116.994 45.9794C117.53 46.2114 118.154 46.3274 118.864 46.3274C119.285 46.3274 119.691 46.2839 120.082 46.1969C120.474 46.0954 120.822 45.9431 121.126 45.7401C121.445 45.5226 121.706 45.2471 121.909 44.9136C122.112 44.5801 122.25 44.1741 122.323 43.6956H118.821V40.3896Z" fill="white"/>
<path d="M102.849 43.4782L100.935 38.0189L99.0206 43.4782H102.849ZM103.98 46.7189H97.8896L96.9109 49.5681H92.3651L98.6074 33.1687H103.262L109.504 49.5681H104.958L103.98 46.7189Z" fill="white"/>
<path d="M90.8579 36.7792H85.7902V39.5197H90.5752V43.1302H85.7902V45.9576H90.8579V49.5681H81.5272V33.1687H90.8579V36.7792Z" fill="white"/>
<path d="M203.183 63.6999C203.462 63.6999 203.661 63.683 203.779 63.6491C203.898 63.6153 203.974 63.5561 204.008 63.4715C204.042 63.3785 204.058 63.2262 204.058 63.0147V56.468C204.058 56.2481 204.033 56.1043 203.982 56.0366C203.932 55.9605 203.83 55.9225 203.678 55.9225H203.246V55.5418L204.782 55.2881H205.137V63.0147C205.137 63.2262 205.154 63.3785 205.188 63.4715C205.221 63.5561 205.298 63.6153 205.416 63.6491C205.534 63.683 205.729 63.6999 206 63.6999V64.0678H203.183V63.6999Z" fill="#F6F6F6"/>
<path d="M201.771 63.8648C201.611 63.9663 201.446 64.0467 201.277 64.1059C201.107 64.1651 200.888 64.1947 200.617 64.1947C200.363 64.1947 200.169 64.144 200.033 64.0425C199.906 63.941 199.83 63.721 199.805 63.3827C199.492 63.6534 199.187 63.8606 198.891 64.0044C198.595 64.1397 198.265 64.2074 197.902 64.2074C197.437 64.2074 197.056 64.1017 196.76 63.8902C196.472 63.6703 196.328 63.3531 196.328 62.9387C196.328 62.3466 196.629 61.8306 197.229 61.3908C197.83 60.9509 198.688 60.6422 199.805 60.4646V59.7287C199.805 59.2974 199.716 58.9759 199.538 58.7645C199.369 58.553 199.073 58.4473 198.65 58.4473C198.354 58.4473 198.088 58.5023 197.851 58.6122C197.614 58.7222 197.496 58.8321 197.496 58.9421C197.496 59.0013 197.534 59.0647 197.61 59.1324C197.694 59.1916 197.758 59.2551 197.8 59.3227C197.851 59.3819 197.876 59.475 197.876 59.6018C197.876 59.7795 197.826 59.9233 197.724 60.0332C197.623 60.1347 197.479 60.1855 197.293 60.1855C197.098 60.1855 196.942 60.1263 196.823 60.0078C196.713 59.8894 196.658 59.7245 196.658 59.513C196.658 59.2508 196.743 59.0055 196.912 58.7772C197.09 58.5488 197.352 58.3627 197.699 58.2189C198.054 58.0751 198.485 58.0032 198.993 58.0032C199.636 58.0032 200.109 58.1343 200.414 58.3965C200.718 58.6587 200.871 59.1155 200.871 59.7668V62.7737C200.871 63.1036 200.904 63.332 200.972 63.4588C201.048 63.5773 201.167 63.6365 201.327 63.6365C201.429 63.6365 201.547 63.6069 201.683 63.5476L201.771 63.8648ZM197.47 62.6342C197.47 62.9302 197.555 63.1543 197.724 63.3066C197.893 63.4504 198.139 63.5223 198.46 63.5223C198.697 63.5223 198.921 63.4715 199.132 63.37C199.352 63.2685 199.576 63.1332 199.805 62.964V60.8706C199.018 61.0398 198.43 61.2681 198.041 61.5557C197.661 61.8348 197.47 62.1943 197.47 62.6342Z" fill="#F6F6F6"/>
<path d="M192.02 57.9905C192.764 57.9905 193.331 58.2443 193.72 58.7518C194.118 59.2508 194.316 59.9909 194.316 60.9721C194.316 62.0801 194.08 62.9006 193.606 63.4334C193.132 63.9578 192.481 64.2201 191.652 64.2201C191.018 64.2201 190.442 64.0213 189.926 63.6237H189.825L189.444 64.0678H189.051V56.5188C189.051 56.2735 189.021 56.117 188.962 56.0493C188.911 55.9732 188.793 55.9351 188.607 55.9351H188.214V55.5545L189.774 55.2881H190.129V58.6122H190.155C190.679 58.1977 191.301 57.9905 192.02 57.9905ZM191.5 63.8141C192.033 63.8141 192.434 63.6026 192.705 63.1797C192.984 62.7483 193.124 62.0716 193.124 61.1497C193.124 59.3904 192.608 58.5107 191.576 58.5107C191.297 58.5107 191.039 58.5699 190.802 58.6883C190.574 58.8067 190.349 58.9632 190.129 59.1578V63.1797C190.535 63.6026 190.992 63.8141 191.5 63.8141Z" fill="#F6F6F6"/>
<path d="M183.787 64.2074C181.952 64.2074 181.034 63.1713 181.034 61.099C181.034 60.0755 181.262 59.3016 181.719 58.7772C182.176 58.2443 182.869 57.9779 183.8 57.9779C185.635 57.9779 186.553 59.014 186.553 61.0863C186.553 63.167 185.631 64.2074 183.787 64.2074ZM183.8 63.8014C184.849 63.8014 185.373 62.9175 185.373 61.1497C185.373 59.3058 184.844 58.3839 183.787 58.3839C183.263 58.3839 182.869 58.6165 182.607 59.0817C182.345 59.5384 182.214 60.2109 182.214 61.099C182.214 62.9006 182.743 63.8014 183.8 63.8014Z" fill="#F6F6F6"/>
<path d="M176.473 63.6999C176.752 63.6999 176.951 63.683 177.069 63.6491C177.188 63.6153 177.264 63.5561 177.298 63.4715C177.332 63.3785 177.349 63.2262 177.349 63.0147V56.468C177.349 56.2481 177.323 56.1043 177.272 56.0366C177.222 55.9605 177.12 55.9225 176.968 55.9225H176.537V55.5418L178.072 55.2881H178.427V63.0147C178.427 63.2262 178.444 63.3785 178.478 63.4715C178.512 63.5561 178.588 63.6153 178.706 63.6491C178.825 63.683 179.019 63.6999 179.29 63.6999V64.0678H176.473V63.6999Z" fill="#F6F6F6"/>
<path d="M171.347 64.2201C170.535 64.2201 169.837 64.0467 169.253 63.6999C168.67 63.3531 168.222 62.8625 167.909 62.2281C167.604 61.5853 167.452 60.8283 167.452 59.9571C167.452 59.0689 167.613 58.295 167.934 57.6353C168.255 56.9671 168.716 56.4511 169.317 56.0874C169.926 55.7237 170.649 55.5418 171.486 55.5418C171.85 55.5418 172.155 55.5714 172.4 55.6306C172.645 55.6899 172.891 55.7702 173.136 55.8717C173.364 55.9647 173.525 56.0113 173.618 56.0113C173.77 56.0113 173.868 55.9521 173.91 55.8336L173.973 55.6941H174.278L174.405 57.9778H174.062C173.927 57.445 173.669 56.9797 173.288 56.5822C172.907 56.1762 172.358 55.9732 171.639 55.9732C170.928 55.9732 170.362 56.1804 169.939 56.5949C169.516 57.0009 169.22 57.5042 169.05 58.1047C168.881 58.6968 168.797 59.2973 168.797 59.9063C168.797 60.583 168.898 61.2174 169.101 61.8094C169.304 62.3931 169.621 62.871 170.053 63.2431C170.493 63.6068 171.047 63.7887 171.715 63.7887C172.095 63.7887 172.43 63.7252 172.717 63.5984C173.005 63.463 173.174 63.2347 173.225 62.9132V61.2385C173.225 61.0101 173.174 60.8494 173.072 60.7564C172.971 60.6633 172.785 60.6168 172.514 60.6168H172.298V60.2489H175.039V60.6168H174.861C174.701 60.6168 174.582 60.6591 174.506 60.7437C174.43 60.8198 174.392 60.9551 174.392 61.1497V64.0932H174.151C174.109 63.9832 174.054 63.9029 173.986 63.8521C173.927 63.7929 173.842 63.7633 173.732 63.7633C173.631 63.7633 173.432 63.8098 173.136 63.9029C172.848 63.9959 172.565 64.072 172.286 64.1312C172.015 64.1904 171.702 64.2201 171.347 64.2201Z" fill="#F6F6F6"/>
<path d="M160.77 57.9905C161.041 57.9905 161.261 58.0666 161.43 58.2188C161.607 58.3711 161.696 58.5656 161.696 58.8025C161.696 58.9801 161.65 59.1239 161.557 59.2338C161.464 59.3438 161.337 59.3988 161.176 59.3988C161.024 59.3988 160.901 59.3565 160.808 59.2719C160.715 59.1873 160.669 59.0858 160.669 58.9674C160.669 58.9082 160.677 58.849 160.694 58.7898C160.711 58.7306 160.719 58.684 160.719 58.6502C160.719 58.5995 160.694 58.5529 160.643 58.5107C160.592 58.4684 160.529 58.4472 160.453 58.4472C160.301 58.4472 160.127 58.5783 159.933 58.8405C160.161 59.1535 160.275 59.5341 160.275 59.9824C160.275 60.6591 160.043 61.1581 159.577 61.4795C159.121 61.7925 158.554 61.949 157.877 61.949C157.573 61.949 157.289 61.9193 157.027 61.8601C156.621 62.0801 156.418 62.3169 156.418 62.5706C156.418 62.7229 156.503 62.8498 156.672 62.9513C156.85 63.0528 157.146 63.1035 157.56 63.1035H158.474C159.269 63.1035 159.848 63.2388 160.212 63.5095C160.584 63.7802 160.77 64.1819 160.77 64.7148C160.77 65.3999 160.495 65.9117 159.945 66.25C159.396 66.5883 158.689 66.7575 157.827 66.7575C157.057 66.7575 156.431 66.6264 155.949 66.3642C155.475 66.102 155.238 65.7087 155.238 65.1843C155.238 64.8967 155.323 64.6514 155.492 64.4484C155.661 64.2538 155.94 64.0804 156.329 63.9282C156.076 63.8436 155.877 63.7167 155.733 63.5476C155.589 63.3699 155.517 63.1754 155.517 62.964C155.517 62.7356 155.611 62.5157 155.797 62.3042C155.983 62.0927 156.253 61.8982 156.609 61.7206C155.856 61.3992 155.479 60.824 155.479 59.9951C155.479 59.3184 155.716 58.8152 156.19 58.4853C156.672 58.1554 157.243 57.9905 157.903 57.9905C158.258 57.9905 158.592 58.0412 158.905 58.1427C159.218 58.2358 159.484 58.3795 159.704 58.5741C160 58.185 160.356 57.9905 160.77 57.9905ZM157.852 61.543C158.326 61.543 158.66 61.4076 158.854 61.137C159.057 60.8663 159.159 60.4603 159.159 59.919C159.159 59.4368 159.062 59.0647 158.867 58.8025C158.681 58.5403 158.364 58.4092 157.915 58.4092C157.459 58.4092 157.133 58.5487 156.938 58.8278C156.744 59.0985 156.647 59.4918 156.647 60.0078C156.647 60.4899 156.735 60.8663 156.913 61.137C157.099 61.4076 157.412 61.543 157.852 61.543ZM157.002 64.0297C156.723 64.1397 156.524 64.2877 156.406 64.4738C156.296 64.6683 156.241 64.8713 156.241 65.0828C156.241 65.4718 156.397 65.7806 156.71 66.0089C157.032 66.2458 157.454 66.3642 157.979 66.3642C158.529 66.3642 158.973 66.2415 159.311 65.9963C159.649 65.7594 159.819 65.4211 159.819 64.9813C159.819 64.6514 159.696 64.4103 159.451 64.2581C159.205 64.1058 158.787 64.0297 158.195 64.0297H157.002Z" fill="#F6F6F6"/>
<path d="M152.984 63.0147C152.984 63.2262 153.001 63.3784 153.035 63.4714C153.069 63.556 153.145 63.6152 153.263 63.6491C153.382 63.6829 153.58 63.6998 153.859 63.6998V64.0678H151.081V63.6998C151.352 63.6998 151.542 63.6871 151.652 63.6618C151.762 63.6279 151.834 63.5687 151.868 63.4841C151.901 63.3996 151.918 63.2515 151.918 63.0401V59.957C151.918 59.551 151.821 59.2254 151.626 58.9801C151.44 58.7263 151.144 58.5995 150.738 58.5995C150.408 58.5995 150.129 58.6798 149.901 58.8405C149.673 58.9928 149.453 59.2127 149.241 59.5003V63.0401C149.241 63.2515 149.258 63.4038 149.292 63.4968C149.326 63.5814 149.398 63.6364 149.508 63.6618C149.618 63.6871 149.804 63.6998 150.066 63.6998V64.0678H147.287V63.6998C147.566 63.6998 147.765 63.6829 147.884 63.6491C148.002 63.6152 148.074 63.556 148.099 63.4714C148.133 63.3869 148.15 63.2346 148.15 63.0147V59.2338C148.15 59.0139 148.125 58.8701 148.074 58.8025C148.023 58.7263 147.926 58.6883 147.782 58.6883H147.351V58.3077L148.848 58.0539H149.203V58.9928H149.216C149.503 58.6544 149.812 58.4049 150.142 58.2442C150.472 58.0751 150.848 57.9905 151.271 57.9905C152.413 57.9905 152.984 58.5995 152.984 59.8175V63.0147Z" fill="#F6F6F6"/>
<path d="M144.003 56.9375C143.8 56.9375 143.631 56.874 143.496 56.7471C143.369 56.6118 143.306 56.4469 143.306 56.2523C143.306 56.0493 143.369 55.8802 143.496 55.7448C143.631 55.6095 143.8 55.5418 144.003 55.5418C144.215 55.5418 144.384 55.6095 144.511 55.7448C144.638 55.8802 144.701 56.0493 144.701 56.2523C144.701 56.4469 144.634 56.6118 144.498 56.7471C144.371 56.874 144.206 56.9375 144.003 56.9375ZM142.633 63.6999C142.912 63.6999 143.111 63.6829 143.229 63.6491C143.348 63.6153 143.42 63.5561 143.445 63.4715C143.479 63.3869 143.496 63.2347 143.496 63.0147V59.2339C143.496 59.014 143.471 58.8702 143.42 58.8025C143.377 58.7264 143.28 58.6883 143.128 58.6883H142.697V58.3077L144.232 58.0539H144.587V63.0147C144.587 63.2347 144.604 63.3911 144.638 63.4842C144.672 63.5688 144.744 63.628 144.853 63.6618C144.972 63.6872 145.171 63.6999 145.45 63.6999V64.0678H142.633V63.6999Z" fill="#F6F6F6"/>
<path d="M141.048 63.6999V64.0678H139.272L139.183 63.4588C138.912 63.6787 138.625 63.8606 138.32 64.0044C138.016 64.1482 137.656 64.2201 137.242 64.2201C136.498 64.2201 135.927 63.9621 135.529 63.4461C135.14 62.9302 134.946 62.1816 134.946 61.2004C134.946 60.1093 135.182 59.3016 135.656 58.7771C136.13 58.2527 136.789 57.9905 137.635 57.9905C138.185 57.9905 138.676 58.1555 139.107 58.4853V58.4346H139.145V56.5061C139.145 56.2777 139.12 56.1255 139.069 56.0493C139.018 55.9732 138.917 55.9351 138.764 55.9351H138.308V55.5672L139.868 55.2881H140.211V63.1036C140.211 63.3404 140.245 63.5011 140.312 63.5857C140.388 63.6618 140.524 63.6999 140.718 63.6999H141.048ZM136.138 61.0482C136.138 62.8075 136.654 63.6872 137.686 63.6872C137.965 63.6872 138.215 63.6237 138.435 63.4969C138.655 63.37 138.891 63.1924 139.145 62.964V59.0309C138.731 58.5995 138.274 58.3838 137.775 58.3838C137.233 58.3838 136.823 58.5953 136.544 59.0182C136.273 59.4411 136.138 60.1178 136.138 61.0482Z" fill="#F6F6F6"/>
<path d="M132.661 57.9779C132.966 57.9779 133.198 58.0667 133.359 58.2443C133.528 58.4219 133.613 58.6672 133.613 58.9802C133.613 59.2339 133.554 59.4327 133.435 59.5765C133.317 59.7203 133.135 59.7922 132.89 59.7922C132.678 59.7922 132.513 59.7372 132.395 59.6272C132.285 59.5173 132.23 59.3735 132.23 59.1959C132.23 59.0944 132.247 59.0098 132.281 58.9421C132.315 58.8745 132.365 58.8026 132.433 58.7264C132.501 58.6503 132.534 58.5911 132.534 58.5488C132.534 58.4727 132.479 58.4346 132.369 58.4346C132.209 58.4346 132.035 58.515 131.849 58.6757C131.672 58.8364 131.515 59.0563 131.38 59.3354C131.245 59.6061 131.16 59.9021 131.126 60.2236V63.0148C131.126 63.2347 131.143 63.3912 131.177 63.4842C131.219 63.5688 131.304 63.628 131.431 63.6619C131.557 63.6872 131.773 63.6999 132.078 63.6999V64.0678H129.172V63.6999C129.451 63.6999 129.65 63.683 129.769 63.6492C129.887 63.6153 129.959 63.5561 129.984 63.4715C130.018 63.387 130.035 63.2347 130.035 63.0148V59.2339C130.035 59.014 130.01 58.8702 129.959 58.8026C129.908 58.7264 129.811 58.6884 129.667 58.6884H129.236V58.3077L130.733 58.054H131.088V59.2466H131.101C131.287 58.8914 131.498 58.5911 131.735 58.3458C131.972 58.1005 132.281 57.9779 132.661 57.9779Z" fill="#F6F6F6"/>
<path d="M127.246 61.1496H123.211C123.228 61.9363 123.368 62.558 123.63 63.0147C123.901 63.4715 124.374 63.6998 125.051 63.6998C125.542 63.6998 125.931 63.5729 126.218 63.3192C126.506 63.0654 126.717 62.7398 126.853 62.3423L127.208 62.4945C127.03 63.0105 126.755 63.4249 126.383 63.7379C126.011 64.0508 125.457 64.2073 124.721 64.2073C123.816 64.2073 123.139 63.9451 122.691 63.4207C122.251 62.8963 122.031 62.1435 122.031 61.1623C122.031 60.1558 122.26 59.3776 122.716 58.8278C123.173 58.2696 123.846 57.9905 124.734 57.9905C126.408 57.9905 127.246 59.0055 127.246 61.0355V61.1496ZM126.066 60.7436C126.066 59.9401 125.969 59.348 125.774 58.9674C125.58 58.5783 125.237 58.3838 124.746 58.3838C124.247 58.3838 123.875 58.5825 123.63 58.9801C123.385 59.3692 123.245 59.957 123.211 60.7436H126.066Z" fill="#F6F6F6"/>
<path d="M119.494 63.0147C119.494 63.2262 119.511 63.3784 119.545 63.4714C119.578 63.5645 119.654 63.6279 119.773 63.6618C119.891 63.6871 120.09 63.6998 120.369 63.6998V64.0678H117.591V63.6998C117.861 63.6998 118.052 63.6871 118.162 63.6618C118.272 63.6279 118.343 63.5687 118.377 63.4841C118.411 63.3996 118.428 63.2515 118.428 63.0401V59.957C118.428 59.5426 118.343 59.2127 118.174 58.9674C118.005 58.7221 117.73 58.5995 117.35 58.5995C117.054 58.5995 116.791 58.684 116.563 58.8532C116.335 59.0139 116.119 59.2381 115.916 59.5257V63.0147C115.916 63.2262 115.933 63.3784 115.967 63.4714C116 63.556 116.072 63.6152 116.182 63.6491C116.301 63.6829 116.491 63.6998 116.753 63.6998V64.0678H114.013V63.6998C114.283 63.6998 114.474 63.6871 114.584 63.6618C114.694 63.6279 114.766 63.5687 114.799 63.4841C114.833 63.3996 114.85 63.2515 114.85 63.0401V59.957C114.85 59.5426 114.766 59.2127 114.596 58.9674C114.427 58.7221 114.152 58.5995 113.772 58.5995C113.239 58.5995 112.761 58.8955 112.338 59.4876V63.0401C112.338 63.2515 112.355 63.4038 112.389 63.4968C112.423 63.5814 112.494 63.6364 112.604 63.6618C112.714 63.6871 112.9 63.6998 113.163 63.6998V64.0678H110.384V63.6998C110.663 63.6998 110.862 63.6829 110.98 63.6491C111.099 63.6152 111.171 63.556 111.196 63.4714C111.23 63.3869 111.247 63.2346 111.247 63.0147V59.2338C111.247 59.0139 111.221 58.8701 111.171 58.8025C111.12 58.7263 111.023 58.6883 110.879 58.6883H110.448V58.3077L111.945 58.0539H112.3V58.9674H112.313C112.871 58.3161 113.539 57.9905 114.317 57.9905C114.74 57.9905 115.083 58.0835 115.345 58.2696C115.607 58.4557 115.781 58.7052 115.865 59.0182C116.39 58.333 117.066 57.9905 117.895 57.9905C118.436 57.9905 118.838 58.1427 119.1 58.4472C119.363 58.7433 119.494 59.2 119.494 59.8175V63.0147Z" fill="#F6F6F6"/>
<path d="M108.012 63.0147C108.012 63.2262 108.029 63.3784 108.063 63.4714C108.097 63.5645 108.173 63.6279 108.291 63.6618C108.41 63.6871 108.608 63.6998 108.888 63.6998V64.0678H106.109V63.6998C106.38 63.6998 106.57 63.6871 106.68 63.6618C106.79 63.6279 106.862 63.5687 106.896 63.4841C106.929 63.3996 106.946 63.2515 106.946 63.0401V59.957C106.946 59.5426 106.862 59.2127 106.693 58.9674C106.523 58.7221 106.249 58.5995 105.868 58.5995C105.572 58.5995 105.31 58.684 105.081 58.8532C104.853 59.0139 104.637 59.2381 104.434 59.5257V63.0147C104.434 63.2262 104.451 63.3784 104.485 63.4714C104.519 63.556 104.591 63.6152 104.701 63.6491C104.819 63.6829 105.009 63.6998 105.272 63.6998V64.0678H102.531V63.6998C102.802 63.6998 102.992 63.6871 103.102 63.6618C103.212 63.6279 103.284 63.5687 103.318 63.4841C103.352 63.3996 103.368 63.2515 103.368 63.0401V59.957C103.368 59.5426 103.284 59.2127 103.115 58.9674C102.946 58.7221 102.671 58.5995 102.29 58.5995C101.757 58.5995 101.279 58.8955 100.856 59.4876V63.0401C100.856 63.2515 100.873 63.4038 100.907 63.4968C100.941 63.5814 101.013 63.6364 101.123 63.6618C101.233 63.6871 101.419 63.6998 101.681 63.6998V64.0678H98.9024V63.6998C99.1816 63.6998 99.3803 63.6829 99.4988 63.6491C99.6172 63.6152 99.6891 63.556 99.7144 63.4714C99.7483 63.3869 99.7652 63.2346 99.7652 63.0147V59.2338C99.7652 59.0139 99.7398 58.8701 99.6891 58.8025C99.6383 58.7263 99.541 58.6883 99.3973 58.6883H98.9659V58.3077L100.463 58.0539H100.818V58.9674H100.831C101.389 58.3161 102.057 57.9905 102.836 57.9905C103.258 57.9905 103.601 58.0835 103.863 58.2696C104.125 58.4557 104.299 58.7052 104.383 59.0182C104.908 58.333 105.585 57.9905 106.413 57.9905C106.955 57.9905 107.357 58.1427 107.619 58.4472C107.881 58.7433 108.012 59.2 108.012 59.8175V63.0147Z" fill="#F6F6F6"/>
<path d="M94.18 64.2074C92.3445 64.2074 91.4268 63.1713 91.4268 61.099C91.4268 60.0755 91.6552 59.3016 92.1119 58.7772C92.5687 58.2443 93.2623 57.9779 94.1927 57.9779C96.0281 57.9779 96.9459 59.014 96.9459 61.0863C96.9459 63.167 96.0239 64.2074 94.18 64.2074ZM94.1927 63.8014C95.2415 63.8014 95.7659 62.9175 95.7659 61.1497C95.7659 59.3058 95.2373 58.3839 94.18 58.3839C93.6556 58.3839 93.2623 58.6165 93 59.0817C92.7378 59.5384 92.6067 60.2109 92.6067 61.099C92.6067 62.9006 93.1354 63.8014 94.1927 63.8014Z" fill="#F6F6F6"/>
<path d="M81.2093 63.6998C81.5307 63.6998 81.7549 63.6828 81.8817 63.649C82.0171 63.6152 82.1016 63.556 82.1355 63.4714C82.1693 63.3783 82.1862 63.2176 82.1862 62.9893V56.7851C82.1862 56.5652 82.1651 56.4087 82.1228 56.3157C82.089 56.2226 82.0044 56.1592 81.869 56.1254C81.7422 56.0915 81.5222 56.0704 81.2093 56.0619V55.694H84.3304V56.0619C84.0175 56.0619 83.7933 56.0831 83.658 56.1254C83.5311 56.1592 83.4465 56.2226 83.4042 56.3157C83.3704 56.4087 83.3535 56.5652 83.3535 56.7851V59.4622H87.4389V56.7851C87.4389 56.5652 87.4177 56.4087 87.3754 56.3157C87.3416 56.2226 87.257 56.1592 87.1217 56.1254C86.9948 56.0831 86.7749 56.0619 86.4619 56.0619V55.694H89.5831V56.0619C89.2701 56.0704 89.046 56.0915 88.9106 56.1254C88.7838 56.1592 88.6992 56.2226 88.6569 56.3157C88.623 56.4087 88.6061 56.5652 88.6061 56.7851V62.9893C88.6061 63.2092 88.623 63.3657 88.6569 63.4587C88.6992 63.5517 88.7838 63.6152 88.9106 63.649C89.046 63.6828 89.2701 63.6998 89.5831 63.6998V64.0677H86.4619V63.6998C86.7834 63.6998 87.0075 63.6828 87.1344 63.649C87.2697 63.6152 87.3543 63.556 87.3881 63.4714C87.422 63.3783 87.4389 63.2176 87.4389 62.9893V59.9443H83.3535V62.9893C83.3535 63.2092 83.3704 63.3657 83.4042 63.4587C83.4465 63.5517 83.5311 63.6152 83.658 63.649C83.7933 63.6828 84.0175 63.6998 84.3304 63.6998V64.0677H81.2093V63.6998Z" fill="#F6F6F6"/>
</svg>
