<svg width="172" height="43" viewBox="0 0 172 43" fill="none" xmlns="http://www.w3.org/2000/svg">
<path d="M35.5419 14.0036C36.2472 13.5378 36.8593 13.1519 36.9125 13.1519C36.9658 13.1519 36.6863 13.5245 36.2871 13.977C33.8387 16.7847 32.1221 20.2577 31.3769 23.9703C30.9511 26.0861 30.9511 29.7321 31.3902 31.7813C32.029 34.8153 33.3596 37.8891 34.9831 40.098C35.502 40.79 35.7149 41.1759 35.5952 41.2025C35.3423 41.2557 33.4661 40.4972 32.6677 40.0049C29.9531 38.3549 27.9305 35.6669 27.1321 32.6463C26.7329 31.1559 26.6397 28.295 26.9325 26.6449C27.7974 21.6682 30.9245 17.0774 35.5419 14.0036Z" fill="white"/>
<path d="M24.9633 21.189C25.5621 20.7233 26.0811 20.3374 26.121 20.3374C26.1609 20.3374 25.988 20.6568 25.7218 21.0293C23.4597 24.356 22.0226 30.5703 22.4883 35.0413C22.7544 37.7293 23.5528 40.018 24.6706 41.3221C24.9367 41.6148 25.1496 41.9076 25.1496 41.9608C25.1496 42.014 24.7238 42.0273 24.2182 42.0007C21.6633 41.8144 19.4677 39.6055 18.616 36.372C18.2834 35.1211 18.2168 32.6195 18.483 31.2755C19.2015 27.5895 21.65 23.7705 24.9633 21.189Z" fill="white"/>
<path fill-rule="evenodd" clip-rule="evenodd" d="M11.9627 8.90701C8.02394 11.2756 4.5509 15.0547 2.52827 19.2197C0.998001 22.3601 0 26.5251 0 29.7852V30.7832L0.785095 29.1864C2.99401 24.6222 6.57351 20.8431 10.9381 18.4213L11.843 17.9157L11.6301 18.5011C11.2841 19.4725 10.8184 21.6548 10.5522 23.4646C10.2196 25.8598 10.2196 31.0494 10.5522 32.7792C10.805 34.07 11.2708 35.6003 11.4305 35.7067C11.497 35.7333 11.6966 35.1212 11.8829 34.3228C13.5329 27.39 18.3366 21.0427 25.5622 16.2656C30.8716 12.7526 37.1523 10.4639 41.5835 10.4373C43.1882 10.424 43.5606 10.5754 44.0667 10.7812L44.0718 10.7833C44.5805 10.9901 45.2428 11.6349 45.2428 12.3534C45.2428 12.4134 45.2323 12.4712 45.2227 12.5234C45.1985 12.6565 45.1809 12.7526 45.3626 12.7526C45.6154 12.7526 46.8969 11.4885 47.2162 10.7833C47.509 10.1445 47.5582 9.55904 47.5582 8.56103C47.5715 7.20375 47.3453 6.61826 46.5069 5.76663C45.3892 4.64886 43.9388 4.26297 40.5455 4.14321C39.2548 4.10329 38.1903 4.03675 38.1903 3.99683C38.1643 3.94536 38.2294 3.90521 38.3381 3.83818C38.4379 3.77657 38.5746 3.69226 38.7113 3.55558C38.7113 3.55558 38.9396 3.32726 38.9396 3.09894C38.9396 2.87062 38.8255 2.75646 38.483 2.52814C38.1405 2.29982 35.4491 0.510475 32.5349 0.124581C31.0046 -0.0617132 27.0792 -0.0350998 25.3227 0.177808C23.34 0.417328 21.5303 0.789916 19.6673 1.30888C13.9188 2.9323 7.95741 6.37873 3.53959 10.6236C2.28876 11.8212 0.239521 14.0966 0.319363 14.1898C0.359283 14.2164 0.731865 14.0035 1.15768 13.724C3.11377 12.3934 6.50698 10.597 8.96872 9.57234C10.1264 9.0933 12.6946 8.22837 12.974 8.22837C13.0406 8.22837 12.5748 8.53442 11.9627 8.90701ZM33.599 3.47796C33.3728 3.3582 32.9336 3.18522 32.601 3.09207C31.603 2.81263 29.7666 2.86586 28.5557 3.19852C27.9303 3.37151 27.5843 3.51788 27.744 3.5445C27.8904 3.57111 28.5291 3.77071 29.1811 3.98362C30.605 4.46266 31.257 4.46266 32.1752 4.03685C32.5744 3.85055 33.1465 3.70418 33.4393 3.70418L33.9982 3.69087L33.599 3.47796Z" fill="white"/>
<path d="M161.006 13.387L156.352 6.41596H161.145L163.165 10.2777L165.66 6.41596H170.453L165.521 13.387L171.086 21.3482H166.353L163.363 16.4764L159.857 21.3482H155.164L161.006 13.387Z" fill="white"/>
<path d="M148.97 15.8031L147.227 10.8323L145.484 15.8031H148.97ZM150 18.7539H144.455L143.563 21.3482H139.424L145.108 6.41596H149.346L155.03 21.3482H150.891L150 18.7539Z" fill="white"/>
<path d="M136.631 9.70343V21.3482H132.75V9.70343H129.561V6.41596H139.82V9.70343H136.631Z" fill="white"/>
<path d="M121.439 9.70343H116.824V12.1987H121.181V15.4862H116.824V18.0607H121.439V21.3482H112.943V6.41596H121.439V9.70343Z" fill="white"/>
<path d="M106.284 6.41596V18.0607H110.938V21.3482H102.403V6.41596H106.284Z" fill="white"/>
<path d="M92.2452 12.9908H99.949C99.949 13.783 99.916 14.5025 99.85 15.1495C99.784 15.7964 99.652 16.3971 99.4539 16.9516C99.1767 17.7306 98.8004 18.4237 98.3251 19.0311C97.8498 19.6252 97.2887 20.1269 96.6417 20.5362C96.008 20.9322 95.3083 21.2359 94.5425 21.4472C93.7768 21.6584 92.9714 21.764 92.1264 21.764C90.9646 21.764 89.9018 21.5726 88.938 21.1897C87.9874 20.8068 87.1688 20.2721 86.4823 19.5856C85.7957 18.8858 85.261 18.0541 84.8781 17.0903C84.4953 16.1133 84.3038 15.0372 84.3038 13.8622C84.3038 12.7004 84.4887 11.6376 84.8583 10.6738C85.2412 9.69675 85.7759 8.86498 86.4625 8.17844C87.1622 7.4919 88.0006 6.9572 88.9776 6.57432C89.9546 6.19144 91.0438 6 92.2452 6C93.8032 6 95.1696 6.33667 96.3447 7.01001C97.5197 7.68334 98.4505 8.72636 99.1371 10.139L95.4535 11.664C95.1102 10.8454 94.6613 10.2579 94.1068 9.9014C93.5655 9.54492 92.945 9.36669 92.2452 9.36669C91.6643 9.36669 91.1362 9.47891 90.6609 9.70336C90.1856 9.9146 89.7763 10.2249 89.4331 10.6341C89.103 11.0302 88.839 11.5121 88.6409 12.0798C88.4561 12.6476 88.3637 13.2813 88.3637 13.981C88.3637 14.6148 88.4429 15.2023 88.6013 15.7436C88.7729 16.2849 89.0238 16.7536 89.3539 17.1497C89.6839 17.5458 90.0932 17.856 90.5817 18.0805C91.0702 18.2917 91.6379 18.3973 92.2849 18.3973C92.6677 18.3973 93.0374 18.3577 93.3939 18.2785C93.7504 18.1861 94.0672 18.0475 94.3445 17.8626C94.6349 17.6646 94.8726 17.4137 95.0574 17.1101C95.2423 16.8064 95.3677 16.4367 95.4337 16.001H92.2452V12.9908Z" fill="white"/>
<path d="M77.7022 15.8031L75.9595 10.8323L74.2167 15.8031H77.7022ZM78.732 18.7539H73.1869L72.2957 21.3482H68.1567L73.8404 6.41596H78.0785L83.7623 21.3482H79.6232L78.732 18.7539Z" fill="white"/>
<path d="M66.7844 9.70343H62.1701V12.1987H66.5269V15.4862H62.1701V18.0607H66.7844V21.3482H58.2885V6.41596H66.7844V9.70343Z" fill="white"/>
<path d="M169.06 34.2159C169.314 34.2159 169.495 34.2005 169.603 34.1696C169.711 34.1388 169.78 34.0849 169.811 34.0079C169.842 33.9232 169.857 33.7846 169.857 33.592V27.631C169.857 27.4308 169.834 27.2998 169.788 27.2382C169.741 27.1689 169.649 27.1343 169.51 27.1343H169.118V26.7877L170.515 26.5566H170.839V33.592C170.839 33.7846 170.854 33.9232 170.885 34.0079C170.916 34.0849 170.985 34.1388 171.093 34.1696C171.201 34.2005 171.378 34.2159 171.625 34.2159V34.5509H169.06V34.2159Z" fill="white"/>
<path d="M167.775 34.3663C167.629 34.4587 167.479 34.5319 167.325 34.5858C167.171 34.6397 166.97 34.6667 166.724 34.6667C166.493 34.6667 166.316 34.6204 166.193 34.528C166.077 34.4356 166.008 34.2354 165.985 33.9273C165.7 34.1738 165.422 34.3624 165.153 34.4934C164.883 34.6166 164.583 34.6782 164.252 34.6782C163.828 34.6782 163.482 34.5819 163.212 34.3894C162.95 34.1892 162.819 33.9003 162.819 33.523C162.819 32.9839 163.093 32.5141 163.639 32.1136C164.186 31.7131 164.968 31.432 165.985 31.2703V30.6002C165.985 30.2074 165.904 29.9148 165.742 29.7222C165.588 29.5297 165.318 29.4334 164.933 29.4334C164.664 29.4334 164.421 29.4835 164.206 29.5836C163.99 29.6837 163.882 29.7839 163.882 29.884C163.882 29.9379 163.917 29.9957 163.986 30.0573C164.063 30.1112 164.121 30.1689 164.159 30.2306C164.206 30.2845 164.229 30.3692 164.229 30.4847C164.229 30.6464 164.182 30.7774 164.09 30.8775C163.998 30.9699 163.867 31.0161 163.697 31.0161C163.52 31.0161 163.378 30.9622 163.27 30.8544C163.17 30.7466 163.12 30.5964 163.12 30.4038C163.12 30.1651 163.197 29.9417 163.351 29.7338C163.512 29.5259 163.751 29.3564 164.067 29.2255C164.39 29.0946 164.783 29.0291 165.245 29.0291C165.831 29.0291 166.262 29.1485 166.539 29.3872C166.816 29.626 166.955 30.0419 166.955 30.6349V33.3728C166.955 33.6732 166.986 33.8811 167.047 33.9966C167.117 34.1044 167.225 34.1584 167.371 34.1584C167.463 34.1584 167.571 34.1314 167.694 34.0775L167.775 34.3663ZM163.859 33.2457C163.859 33.5153 163.936 33.7194 164.09 33.858C164.244 33.9889 164.467 34.0544 164.76 34.0544C164.976 34.0544 165.18 34.0082 165.372 33.9158C165.573 33.8233 165.777 33.7001 165.985 33.5461V31.6399C165.268 31.794 164.733 32.0019 164.379 32.2638C164.032 32.5179 163.859 32.8452 163.859 33.2457Z" fill="white"/>
<path d="M158.895 29.0173C159.573 29.0173 160.089 29.2483 160.443 29.7104C160.805 30.1648 160.986 30.8387 160.986 31.7321C160.986 32.741 160.771 33.4881 160.339 33.9733C159.908 34.4508 159.315 34.6895 158.56 34.6895C157.983 34.6895 157.459 34.5085 156.989 34.1465H156.897L156.55 34.5509H156.192V27.6772C156.192 27.4539 156.165 27.3114 156.111 27.2498C156.065 27.1805 155.957 27.1458 155.788 27.1458H155.43V26.7992L156.851 26.5566H157.174V29.5834H157.197C157.675 29.206 158.241 29.0173 158.895 29.0173ZM158.422 34.3198C158.907 34.3198 159.273 34.1273 159.519 33.7422C159.773 33.3494 159.9 32.7333 159.9 31.8938C159.9 30.2919 159.431 29.4909 158.491 29.4909C158.237 29.4909 158.002 29.5448 157.786 29.6527C157.578 29.7605 157.374 29.903 157.174 30.0801V33.7422C157.544 34.1273 157.96 34.3198 158.422 34.3198Z" fill="white"/>
<path d="M151.399 34.678C149.728 34.678 148.893 33.7346 148.893 31.8477C148.893 30.9158 149.1 30.2111 149.516 29.7336C149.932 29.2484 150.564 29.0058 151.411 29.0058C153.082 29.0058 153.918 29.9493 153.918 31.8361C153.918 33.7307 153.078 34.678 151.399 34.678ZM151.411 34.3083C152.366 34.3083 152.843 33.5035 152.843 31.8939C152.843 30.215 152.362 29.3755 151.399 29.3755C150.922 29.3755 150.564 29.5873 150.325 30.0109C150.086 30.4268 149.967 31.039 149.967 31.8477C149.967 33.4881 150.448 34.3083 151.411 34.3083Z" fill="white"/>
<path d="M144.74 34.2159C144.994 34.2159 145.175 34.2005 145.283 34.1696C145.391 34.1388 145.46 34.0849 145.491 34.0079C145.522 33.9232 145.537 33.7846 145.537 33.592V27.631C145.537 27.4308 145.514 27.2998 145.468 27.2382C145.422 27.1689 145.329 27.1343 145.191 27.1343H144.798V26.7877L146.196 26.5566H146.519V33.592C146.519 33.7846 146.534 33.9232 146.565 34.0079C146.596 34.0849 146.665 34.1388 146.773 34.1696C146.881 34.2005 147.058 34.2159 147.305 34.2159V34.5509H144.74V34.2159Z" fill="white"/>
<path d="M140.073 34.6897C139.333 34.6897 138.698 34.5318 138.166 34.2161C137.635 33.9003 137.227 33.4536 136.942 32.876C136.665 32.2907 136.526 31.6014 136.526 30.8081C136.526 29.9995 136.672 29.2948 136.965 28.6941C137.258 28.0856 137.677 27.6158 138.224 27.2847C138.779 26.9535 139.437 26.7879 140.2 26.7879C140.531 26.7879 140.808 26.8149 141.031 26.8688C141.255 26.9227 141.478 26.9959 141.701 27.0883C141.909 27.173 142.056 27.2154 142.14 27.2154C142.279 27.2154 142.368 27.1614 142.406 27.0536L142.464 26.9265H142.741L142.857 29.006H142.545C142.422 28.5208 142.187 28.0972 141.84 27.7352C141.494 27.3655 140.993 27.1807 140.338 27.1807C139.691 27.1807 139.175 27.3694 138.79 27.7468C138.405 28.1164 138.136 28.5747 137.982 29.1215C137.828 29.6606 137.751 30.2074 137.751 30.7619C137.751 31.3781 137.843 31.9557 138.028 32.4948C138.213 33.0262 138.501 33.4613 138.894 33.8002C139.295 34.1314 139.799 34.2969 140.408 34.2969C140.754 34.2969 141.058 34.2392 141.32 34.1237C141.582 34.0004 141.736 33.7925 141.782 33.4998V31.9749C141.782 31.767 141.736 31.6207 141.644 31.5359C141.551 31.4512 141.382 31.4089 141.135 31.4089H140.939V31.0738H143.434V31.4089H143.273C143.126 31.4089 143.018 31.4474 142.949 31.5244C142.88 31.5937 142.845 31.7169 142.845 31.8941V34.5742H142.626C142.587 34.4741 142.537 34.4009 142.475 34.3547C142.422 34.3008 142.345 34.2738 142.244 34.2738C142.152 34.2738 141.971 34.3162 141.701 34.4009C141.44 34.4856 141.182 34.555 140.927 34.6089C140.681 34.6628 140.396 34.6897 140.073 34.6897Z" fill="white"/>
<path d="M130.442 29.0175C130.689 29.0175 130.889 29.0868 131.043 29.2254C131.205 29.364 131.285 29.5412 131.285 29.7568C131.285 29.9185 131.243 30.0495 131.158 30.1496C131.074 30.2497 130.958 30.2998 130.812 30.2998C130.673 30.2998 130.562 30.2613 130.477 30.1842C130.392 30.1072 130.35 30.0148 130.35 29.907C130.35 29.8531 130.357 29.7992 130.373 29.7453C130.388 29.6913 130.396 29.649 130.396 29.6182C130.396 29.572 130.373 29.5296 130.327 29.4911C130.28 29.4526 130.223 29.4333 130.153 29.4333C130.015 29.4333 129.857 29.5527 129.68 29.7915C129.888 30.0764 129.992 30.423 129.992 30.8312C129.992 31.4473 129.78 31.9017 129.356 32.1944C128.94 32.4793 128.424 32.6218 127.808 32.6218C127.531 32.6218 127.273 32.5948 127.034 32.5409C126.665 32.7412 126.48 32.9568 126.48 33.1879C126.48 33.3265 126.557 33.442 126.711 33.5344C126.872 33.6269 127.142 33.6731 127.519 33.6731H128.351C129.075 33.6731 129.603 33.7963 129.934 34.0427C130.273 34.2892 130.442 34.655 130.442 35.1402C130.442 35.764 130.192 36.23 129.691 36.538C129.191 36.8461 128.548 37.0001 127.762 37.0001C127.061 37.0001 126.491 36.8808 126.052 36.642C125.621 36.4033 125.405 36.0451 125.405 35.5676C125.405 35.3058 125.482 35.0824 125.636 34.8976C125.79 34.7205 126.045 34.5626 126.399 34.424C126.168 34.3469 125.987 34.2314 125.856 34.0774C125.725 33.9157 125.659 33.7385 125.659 33.546C125.659 33.338 125.744 33.1378 125.914 32.9453C126.083 32.7527 126.33 32.5756 126.653 32.4139C125.968 32.1212 125.625 31.5975 125.625 30.8427C125.625 30.2266 125.84 29.7684 126.272 29.468C126.711 29.1676 127.231 29.0175 127.831 29.0175C128.155 29.0175 128.459 29.0637 128.744 29.1561C129.029 29.2408 129.272 29.3717 129.472 29.5489C129.741 29.1946 130.065 29.0175 130.442 29.0175ZM127.785 32.2521C128.216 32.2521 128.521 32.1289 128.698 31.8824C128.883 31.636 128.975 31.2663 128.975 30.7734C128.975 30.3344 128.886 29.9956 128.709 29.7568C128.54 29.5181 128.251 29.3987 127.843 29.3987C127.427 29.3987 127.13 29.5258 126.953 29.7799C126.776 30.0264 126.688 30.3845 126.688 30.8543C126.688 31.2933 126.769 31.636 126.93 31.8824C127.1 32.1289 127.385 32.2521 127.785 32.2521ZM127.011 34.5164C126.757 34.6165 126.576 34.7513 126.468 34.9207C126.368 35.0979 126.318 35.2827 126.318 35.4752C126.318 35.8295 126.46 36.1106 126.745 36.3186C127.038 36.5342 127.423 36.642 127.901 36.642C128.401 36.642 128.806 36.5303 129.114 36.307C129.422 36.0914 129.576 35.7833 129.576 35.3828C129.576 35.0824 129.464 34.863 129.241 34.7243C129.017 34.5857 128.636 34.5164 128.097 34.5164H127.011Z" fill="white"/>
<path d="M123.353 33.5922C123.353 33.7847 123.368 33.9234 123.399 34.0081C123.43 34.0851 123.499 34.139 123.607 34.1698C123.715 34.2006 123.896 34.216 124.15 34.216V34.551H121.62V34.216C121.866 34.216 122.039 34.2045 122.14 34.1814C122.24 34.1506 122.305 34.0966 122.336 34.0196C122.367 33.9426 122.382 33.8078 122.382 33.6153V30.8081C122.382 30.4384 122.294 30.1419 122.116 29.9185C121.947 29.6875 121.677 29.572 121.308 29.572C121.007 29.572 120.753 29.6451 120.545 29.7915C120.337 29.9301 120.137 30.1303 119.945 30.3922V33.6153C119.945 33.8078 119.96 33.9465 119.991 34.0312C120.022 34.1082 120.087 34.1583 120.187 34.1814C120.287 34.2045 120.457 34.216 120.696 34.216V34.551H118.166V34.216C118.42 34.216 118.601 34.2006 118.709 34.1698C118.816 34.139 118.882 34.0851 118.905 34.0081C118.936 33.9311 118.951 33.7924 118.951 33.5922V30.1496C118.951 29.9493 118.928 29.8184 118.882 29.7568C118.836 29.6875 118.747 29.6528 118.616 29.6528H118.223V29.3063L119.586 29.0752H119.91V29.9301H119.922C120.183 29.622 120.464 29.3948 120.765 29.2485C121.065 29.0945 121.408 29.0175 121.793 29.0175C122.833 29.0175 123.353 29.572 123.353 30.681V33.5922Z" fill="white"/>
<path d="M115.175 28.0587C114.991 28.0587 114.837 28.0009 114.713 27.8854C114.598 27.7622 114.54 27.612 114.54 27.4348C114.54 27.25 114.598 27.096 114.713 26.9728C114.837 26.8495 114.991 26.7879 115.175 26.7879C115.368 26.7879 115.522 26.8495 115.637 26.9728C115.753 27.096 115.811 27.25 115.811 27.4348C115.811 27.612 115.749 27.7622 115.626 27.8854C115.51 28.0009 115.36 28.0587 115.175 28.0587ZM113.928 34.2161C114.182 34.2161 114.363 34.2007 114.471 34.1699C114.579 34.1391 114.644 34.0852 114.667 34.0081C114.698 33.9311 114.713 33.7925 114.713 33.5923V30.1497C114.713 29.9494 114.69 29.8185 114.644 29.7569C114.605 29.6876 114.517 29.6529 114.378 29.6529H113.986V29.3063L115.383 29.0753H115.707V33.5923C115.707 33.7925 115.722 33.935 115.753 34.0197C115.784 34.0967 115.849 34.1506 115.949 34.1814C116.057 34.2045 116.238 34.2161 116.492 34.2161V34.5511H113.928V34.2161Z" fill="white"/>
<path d="M112.485 34.2159V34.5509H110.868L110.787 33.9964C110.54 34.1966 110.279 34.3622 110.001 34.4931C109.724 34.624 109.397 34.6895 109.019 34.6895C108.342 34.6895 107.822 34.4546 107.46 33.9848C107.106 33.515 106.928 32.8334 106.928 31.94C106.928 30.9465 107.144 30.211 107.575 29.7335C108.007 29.256 108.607 29.0173 109.377 29.0173C109.878 29.0173 110.325 29.1675 110.718 29.4678V29.4216H110.752V27.6657C110.752 27.4577 110.729 27.3191 110.683 27.2498C110.637 27.1805 110.544 27.1458 110.406 27.1458H109.99V26.8108L111.411 26.5566H111.723V33.6729C111.723 33.8885 111.753 34.0349 111.815 34.1119C111.884 34.1812 112.008 34.2159 112.185 34.2159H112.485ZM108.014 31.8014C108.014 33.4033 108.484 34.2043 109.424 34.2043C109.678 34.2043 109.905 34.1465 110.105 34.031C110.306 33.9155 110.521 33.7538 110.752 33.5458V29.9646C110.375 29.5718 109.959 29.3754 109.505 29.3754C109.012 29.3754 108.638 29.568 108.384 29.953C108.138 30.3381 108.014 30.9542 108.014 31.8014Z" fill="white"/>
<path d="M104.848 29.0058C105.126 29.0058 105.337 29.0867 105.484 29.2484C105.638 29.4101 105.715 29.6335 105.715 29.9184C105.715 30.1495 105.661 30.3305 105.553 30.4614C105.445 30.5923 105.28 30.6578 105.056 30.6578C104.864 30.6578 104.714 30.6077 104.606 30.5076C104.506 30.4075 104.456 30.2766 104.456 30.1148C104.456 30.0224 104.471 29.9454 104.502 29.8838C104.533 29.8222 104.579 29.7567 104.64 29.6874C104.702 29.6181 104.733 29.5642 104.733 29.5257C104.733 29.4564 104.683 29.4217 104.583 29.4217C104.436 29.4217 104.278 29.4949 104.109 29.6412C103.947 29.7875 103.805 29.9878 103.682 30.2419C103.558 30.4884 103.481 30.7579 103.451 31.0506V33.5921C103.451 33.7923 103.466 33.9348 103.497 34.0195C103.535 34.0966 103.612 34.1505 103.728 34.1813C103.843 34.2044 104.04 34.2159 104.317 34.2159V34.5509H101.672V34.2159C101.926 34.2159 102.107 34.2005 102.214 34.1697C102.322 34.1389 102.388 34.085 102.411 34.008C102.442 33.931 102.457 33.7923 102.457 33.5921V30.1495C102.457 29.9493 102.434 29.8183 102.388 29.7567C102.342 29.6874 102.253 29.6527 102.122 29.6527H101.729V29.3062L103.092 29.0751H103.416V30.161H103.427C103.597 29.8376 103.789 29.5642 104.005 29.3408C104.221 29.1175 104.502 29.0058 104.848 29.0058Z" fill="white"/>
<path d="M99.9172 31.894H96.2436C96.259 32.6102 96.3861 33.1763 96.6248 33.5922C96.8713 34.0081 97.3026 34.216 97.9187 34.216C98.3654 34.216 98.7196 34.1005 98.9815 33.8694C99.2433 33.6384 99.4359 33.3419 99.5591 32.9799L99.8826 33.1185C99.7208 33.5883 99.4705 33.9657 99.1317 34.2507C98.7928 34.5356 98.2884 34.6781 97.6183 34.6781C96.7942 34.6781 96.1781 34.4394 95.7699 33.9619C95.3695 33.4844 95.1692 32.7989 95.1692 31.9055C95.1692 30.9891 95.3772 30.2805 95.793 29.7799C96.2089 29.2716 96.8212 29.0175 97.6299 29.0175C99.1548 29.0175 99.9172 29.9416 99.9172 31.79V31.894ZM98.8429 31.5243C98.8429 30.7927 98.7543 30.2536 98.5772 29.907C98.4 29.5527 98.0881 29.3756 97.6414 29.3756C97.187 29.3756 96.8482 29.5566 96.6248 29.9185C96.4015 30.2728 96.2744 30.8081 96.2436 31.5243H98.8429Z" fill="white"/>
<path d="M92.8589 33.5922C92.8589 33.7847 92.8743 33.9234 92.9051 34.0081C92.9359 34.0928 93.0052 34.1506 93.1131 34.1814C93.2209 34.2045 93.4019 34.216 93.656 34.216V34.551H91.1261V34.216C91.3725 34.216 91.5458 34.2045 91.6459 34.1814C91.746 34.1506 91.8115 34.0966 91.8423 34.0196C91.8731 33.9426 91.8885 33.8078 91.8885 33.6153V30.8081C91.8885 30.4307 91.8115 30.1303 91.6575 29.907C91.5034 29.6836 91.2531 29.572 90.9066 29.572C90.637 29.572 90.3983 29.649 90.1903 29.803C89.9824 29.9493 89.786 30.1534 89.6012 30.4153V33.5922C89.6012 33.7847 89.6166 33.9234 89.6474 34.0081C89.6782 34.0851 89.7436 34.139 89.8438 34.1698C89.9516 34.2006 90.1249 34.216 90.3636 34.216V34.551H87.8683V34.216C88.1147 34.216 88.288 34.2045 88.3882 34.1814C88.4883 34.1506 88.5537 34.0966 88.5845 34.0196C88.6153 33.9426 88.6308 33.8078 88.6308 33.6153V30.8081C88.6308 30.4307 88.5537 30.1303 88.3997 29.907C88.2457 29.6836 87.9954 29.572 87.6488 29.572C87.1636 29.572 86.7285 29.8415 86.3434 30.3806V33.6153C86.3434 33.8078 86.3588 33.9465 86.3896 34.0312C86.4204 34.1082 86.4859 34.1583 86.586 34.1814C86.6861 34.2045 86.8555 34.216 87.0943 34.216V34.551H84.5643V34.216C84.8185 34.216 84.9995 34.2006 85.1073 34.1698C85.2151 34.139 85.2806 34.0851 85.3037 34.0081C85.3345 33.9311 85.3499 33.7924 85.3499 33.5922V30.1496C85.3499 29.9493 85.3268 29.8184 85.2806 29.7568C85.2344 29.6875 85.1458 29.6528 85.0149 29.6528H84.6221V29.3063L85.9853 29.0752H86.3087V29.907H86.3203C86.8286 29.314 87.437 29.0175 88.1456 29.0175C88.5306 29.0175 88.8425 29.1022 89.0813 29.2716C89.32 29.441 89.4779 29.6682 89.5549 29.9532C90.0324 29.3294 90.6486 29.0175 91.4033 29.0175C91.8962 29.0175 92.262 29.1561 92.5008 29.4333C92.7395 29.7029 92.8589 30.1188 92.8589 30.681V33.5922Z" fill="white"/>
<path d="M82.4042 33.5922C82.4042 33.7847 82.4196 33.9234 82.4504 34.0081C82.4812 34.0928 82.5505 34.1506 82.6583 34.1814C82.7662 34.2045 82.9471 34.216 83.2013 34.216V34.551H80.6713V34.216C80.9178 34.216 81.0911 34.2045 81.1912 34.1814C81.2913 34.1506 81.3568 34.0966 81.3876 34.0196C81.4184 33.9426 81.4338 33.8078 81.4338 33.6153V30.8081C81.4338 30.4307 81.3568 30.1303 81.2027 29.907C81.0487 29.6836 80.7984 29.572 80.4518 29.572C80.1823 29.572 79.9435 29.649 79.7356 29.803C79.5276 29.9493 79.3313 30.1534 79.1464 30.4153V33.5922C79.1464 33.7847 79.1618 33.9234 79.1926 34.0081C79.2234 34.0851 79.2889 34.139 79.389 34.1698C79.4968 34.2006 79.6701 34.216 79.9089 34.216V34.551H77.4136V34.216C77.66 34.216 77.8333 34.2045 77.9334 34.1814C78.0335 34.1506 78.099 34.0966 78.1298 34.0196C78.1606 33.9426 78.176 33.8078 78.176 33.6153V30.8081C78.176 30.4307 78.099 30.1303 77.945 29.907C77.7909 29.6836 77.5406 29.572 77.1941 29.572C76.7089 29.572 76.2737 29.8415 75.8887 30.3806V33.6153C75.8887 33.8078 75.9041 33.9465 75.9349 34.0312C75.9657 34.1082 76.0311 34.1583 76.1313 34.1814C76.2314 34.2045 76.4008 34.216 76.6396 34.216V34.551H74.1096V34.216C74.3637 34.216 74.5447 34.2006 74.6525 34.1698C74.7604 34.139 74.8258 34.0851 74.8489 34.0081C74.8797 33.9311 74.8951 33.7924 74.8951 33.5922V30.1496C74.8951 29.9493 74.872 29.8184 74.8258 29.7568C74.7796 29.6875 74.6911 29.6528 74.5601 29.6528H74.1674V29.3063L75.5305 29.0752H75.854V29.907H75.8655C76.3739 29.314 76.9823 29.0175 77.6908 29.0175C78.0759 29.0175 78.3878 29.1022 78.6266 29.2716C78.8653 29.441 79.0232 29.6682 79.1002 29.9532C79.5777 29.3294 80.1938 29.0175 80.9486 29.0175C81.4415 29.0175 81.8073 29.1561 82.0461 29.4333C82.2848 29.7029 82.4042 30.1188 82.4042 30.681V33.5922Z" fill="white"/>
<path d="M69.8097 34.678C68.1384 34.678 67.3028 33.7346 67.3028 31.8477C67.3028 30.9158 67.5108 30.2111 67.9267 29.7336C68.3425 29.2484 68.9741 29.0058 69.8212 29.0058C71.4925 29.0058 72.3281 29.9493 72.3281 31.8361C72.3281 33.7307 71.4886 34.678 69.8097 34.678ZM69.8212 34.3083C70.7762 34.3083 71.2537 33.5035 71.2537 31.8939C71.2537 30.215 70.7724 29.3755 69.8097 29.3755C69.3322 29.3755 68.9741 29.5873 68.7353 30.0109C68.4966 30.4268 68.3772 31.039 68.3772 31.8477C68.3772 33.4881 68.8585 34.3083 69.8212 34.3083Z" fill="white"/>
<path d="M57.9999 34.2156C58.2925 34.2156 58.4966 34.2001 58.6122 34.1693C58.7354 34.1385 58.8124 34.0846 58.8432 34.0076C58.874 33.9229 58.8894 33.7766 58.8894 33.5686V27.9195C58.8894 27.7193 58.8702 27.5768 58.8317 27.4921C58.8009 27.4074 58.7238 27.3496 58.6006 27.3188C58.4851 27.288 58.2848 27.2687 57.9999 27.261V26.926H60.8418V27.261C60.5568 27.261 60.3527 27.2803 60.2295 27.3188C60.114 27.3496 60.037 27.4074 59.9984 27.4921C59.9676 27.5768 59.9522 27.7193 59.9522 27.9195V30.3571H63.6721V27.9195C63.6721 27.7193 63.6528 27.5768 63.6143 27.4921C63.5835 27.4074 63.5065 27.3496 63.3833 27.3188C63.2678 27.2803 63.0675 27.261 62.7826 27.261V26.926H65.6244V27.261C65.3395 27.2687 65.1354 27.288 65.0122 27.3188C64.8966 27.3496 64.8196 27.4074 64.7811 27.4921C64.7503 27.5768 64.7349 27.7193 64.7349 27.9195V33.5686C64.7349 33.7689 64.7503 33.9113 64.7811 33.9961C64.8196 34.0808 64.8966 34.1385 65.0122 34.1693C65.1354 34.2001 65.3395 34.2156 65.6244 34.2156V34.5506H62.7826V34.2156C63.0752 34.2156 63.2793 34.2001 63.3948 34.1693C63.5181 34.1385 63.5951 34.0846 63.6259 34.0076C63.6567 33.9229 63.6721 33.7766 63.6721 33.5686V30.7961H59.9522V33.5686C59.9522 33.7689 59.9676 33.9113 59.9984 33.9961C60.037 34.0808 60.114 34.1385 60.2295 34.1693C60.3527 34.2001 60.5568 34.2156 60.8418 34.2156V34.5506H57.9999V34.2156Z" fill="white"/>
</svg>
